<svg width="761" height="850" viewBox="0 0 761 850" fill="none" xmlns="http://www.w3.org/2000/svg">
<g clip-path="url(#clip0_2802_27861)">
<g clip-path="url(#clip1_2802_27861)">
<path d="M56.7275 0.143555L-4.84766 61.7187" stroke="white" stroke-width="4.77738"/>
<path d="M56.7275 0.143555L118.303 61.7187" stroke="white" stroke-width="4.77738"/>
<path d="M118.303 0.143555L179.878 61.7187" stroke="white" stroke-width="4.77738"/>
<path d="M241.452 0.143555L179.877 61.7187" stroke="white" stroke-width="4.77738"/>
<path d="M241.453 0.143555L303.028 61.7187" stroke="white" stroke-width="4.77738"/>
<path d="M303.028 0.143555L364.603 61.7187" stroke="white" stroke-width="4.77738"/>
<path d="M364.603 0.143555L426.178 61.7187" stroke="white" stroke-width="4.77738"/>
<path d="M487.753 0.143555L426.178 61.7187" stroke="white" stroke-width="4.77738"/>
<path d="M549.328 0.143555L487.753 61.7187" stroke="white" stroke-width="4.77738"/>
<path d="M610.903 0.143555L549.328 61.7187" stroke="white" stroke-width="4.77738"/>
<path d="M610.903 0.143555L672.478 61.7187" stroke="white" stroke-width="4.77738"/>
<path d="M672.479 0.143555L734.054 61.7187" stroke="white" stroke-width="4.77738"/>
<path d="M734.054 0.143555L795.629 61.7187" stroke="white" stroke-width="4.77738"/>
<path opacity="0.93" d="M-4.84766 61.7183L56.7275 123.293" stroke="white" stroke-width="4.77738"/>
<path opacity="0.93" d="M56.7275 61.7183L118.303 123.293" stroke="white" stroke-width="4.77738"/>
<path opacity="0.93" d="M179.878 61.7183L118.303 123.293" stroke="white" stroke-width="4.77738"/>
<path opacity="0.93" d="M179.877 61.7183L241.452 123.293" stroke="white" stroke-width="4.77738"/>
<path opacity="0.93" d="M241.453 61.7183L303.028 123.293" stroke="white" stroke-width="4.77738"/>
<path opacity="0.93" d="M364.603 61.7183L303.028 123.293" stroke="white" stroke-width="4.77738"/>
<path opacity="0.93" d="M426.178 61.7183L364.603 123.293" stroke="white" stroke-width="4.77738"/>
<path opacity="0.93" d="M487.753 61.7183L426.178 123.293" stroke="white" stroke-width="4.77738"/>
<path opacity="0.93" d="M549.328 61.7183L487.753 123.293" stroke="white" stroke-width="4.77738"/>
<path opacity="0.93" d="M610.903 61.7183L549.328 123.293" stroke="white" stroke-width="4.77738"/>
<path opacity="0.93" d="M610.903 61.7183L672.478 123.293" stroke="white" stroke-width="4.77738"/>
<path opacity="0.93" d="M672.479 61.7188L734.054 123.294" stroke="white" stroke-width="4.77738"/>
<path opacity="0.93" d="M734.054 61.7188L795.629 123.294" stroke="white" stroke-width="4.77738"/>
<path opacity="0.86" d="M-4.84766 123.294L56.7275 184.869" stroke="white" stroke-width="4.77738"/>
<path opacity="0.86" d="M118.303 123.294L56.7275 184.869" stroke="white" stroke-width="4.77738"/>
<path opacity="0.86" d="M118.303 123.294L179.878 184.869" stroke="white" stroke-width="4.77738"/>
<path opacity="0.86" d="M241.452 123.294L179.877 184.869" stroke="white" stroke-width="4.77738"/>
<path opacity="0.86" d="M241.453 123.294L303.028 184.869" stroke="white" stroke-width="4.77738"/>
<path opacity="0.86" d="M364.603 123.294L303.028 184.869" stroke="white" stroke-width="4.77738"/>
<path opacity="0.86" d="M364.603 123.294L426.178 184.869" stroke="white" stroke-width="4.77738"/>
<path opacity="0.86" d="M426.178 123.294L487.753 184.869" stroke="white" stroke-width="4.77738"/>
<path opacity="0.86" d="M487.753 123.294L549.328 184.869" stroke="white" stroke-width="4.77738"/>
<path opacity="0.86" d="M610.903 123.294L549.328 184.869" stroke="white" stroke-width="4.77738"/>
<path opacity="0.86" d="M672.478 123.294L610.903 184.869" stroke="white" stroke-width="4.77738"/>
<path opacity="0.86" d="M672.479 123.294L734.054 184.869" stroke="white" stroke-width="4.77738"/>
<path opacity="0.86" d="M795.629 123.294L734.054 184.869" stroke="white" stroke-width="4.77738"/>
<path opacity="0.79" d="M-4.84766 184.869L56.7275 246.444" stroke="white" stroke-width="4.77738"/>
<path opacity="0.79" d="M56.7275 184.869L118.303 246.444" stroke="white" stroke-width="4.77738"/>
<path opacity="0.79" d="M179.878 184.869L118.303 246.444" stroke="white" stroke-width="4.77738"/>
<path opacity="0.79" d="M241.452 184.869L179.877 246.444" stroke="white" stroke-width="4.77738"/>
<path opacity="0.79" d="M241.453 184.869L303.028 246.444" stroke="white" stroke-width="4.77738"/>
<path opacity="0.79" d="M303.028 184.869L364.603 246.444" stroke="white" stroke-width="4.77738"/>
<path opacity="0.79" d="M364.603 184.869L426.178 246.444" stroke="white" stroke-width="4.77738"/>
<path opacity="0.79" d="M487.753 184.869L426.178 246.444" stroke="white" stroke-width="4.77738"/>
<path opacity="0.79" d="M487.753 184.869L549.328 246.444" stroke="white" stroke-width="4.77738"/>
<path opacity="0.79" d="M610.903 184.869L549.328 246.444" stroke="white" stroke-width="4.77738"/>
<path opacity="0.79" d="M672.478 184.869L610.903 246.444" stroke="white" stroke-width="4.77738"/>
<path opacity="0.79" d="M672.479 184.869L734.054 246.444" stroke="white" stroke-width="4.77738"/>
<path opacity="0.79" d="M795.629 184.869L734.054 246.444" stroke="white" stroke-width="4.77738"/>
<path opacity="0.72" d="M-4.84766 246.444L56.7275 308.019" stroke="white" stroke-width="4.77738"/>
<path opacity="0.72" d="M56.7275 246.444L118.303 308.019" stroke="white" stroke-width="4.77738"/>
<path opacity="0.72" d="M118.303 246.444L179.878 308.019" stroke="white" stroke-width="4.77738"/>
<path opacity="0.72" d="M179.877 246.444L241.452 308.019" stroke="white" stroke-width="4.77738"/>
<path opacity="0.72" d="M303.028 246.444L241.453 308.019" stroke="white" stroke-width="4.77738"/>
<path opacity="0.72" d="M303.028 246.444L364.603 308.019" stroke="white" stroke-width="4.77738"/>
<path opacity="0.72" d="M364.603 246.444L426.178 308.019" stroke="white" stroke-width="4.77738"/>
<path opacity="0.72" d="M426.178 246.444L487.753 308.019" stroke="white" stroke-width="4.77738"/>
<path opacity="0.72" d="M487.753 246.444L549.328 308.019" stroke="white" stroke-width="4.77738"/>
<path opacity="0.72" d="M610.903 246.444L549.328 308.019" stroke="white" stroke-width="4.77738"/>
<path opacity="0.72" d="M672.478 246.444L610.903 308.019" stroke="white" stroke-width="4.77738"/>
<path opacity="0.72" d="M672.479 246.445L734.054 308.02" stroke="white" stroke-width="4.77738"/>
<path opacity="0.72" d="M734.054 246.445L795.629 308.02" stroke="white" stroke-width="4.77738"/>
<path opacity="0.66" d="M56.7275 308.02L-4.84766 369.595" stroke="white" stroke-width="4.77738"/>
<path opacity="0.66" d="M56.7275 308.02L118.303 369.595" stroke="white" stroke-width="4.77738"/>
<path opacity="0.66" d="M179.878 308.02L118.303 369.595" stroke="white" stroke-width="4.77738"/>
<path opacity="0.66" d="M179.877 308.02L241.452 369.595" stroke="white" stroke-width="4.77738"/>
<path opacity="0.66" d="M241.453 308.02L303.028 369.595" stroke="white" stroke-width="4.77738"/>
<path opacity="0.66" d="M303.028 308.02L364.603 369.595" stroke="white" stroke-width="4.77738"/>
<path opacity="0.66" d="M364.603 308.02L426.178 369.595" stroke="white" stroke-width="4.77738"/>
<path opacity="0.66" d="M426.178 308.02L487.753 369.595" stroke="white" stroke-width="4.77738"/>
<path opacity="0.66" d="M549.328 308.02L487.753 369.595" stroke="white" stroke-width="4.77738"/>
<path opacity="0.66" d="M549.328 308.02L610.903 369.595" stroke="white" stroke-width="4.77738"/>
<path opacity="0.66" d="M672.478 308.02L610.903 369.595" stroke="white" stroke-width="4.77738"/>
<path opacity="0.66" d="M734.054 308.02L672.479 369.595" stroke="white" stroke-width="4.77738"/>
<path opacity="0.66" d="M795.629 308.02L734.054 369.595" stroke="white" stroke-width="4.77738"/>
<path opacity="0.59" d="M56.7275 369.594L-4.84766 431.17" stroke="white" stroke-width="4.77738"/>
<path opacity="0.59" d="M118.303 369.594L56.7275 431.17" stroke="white" stroke-width="4.77738"/>
<path opacity="0.59" d="M118.303 369.594L179.878 431.17" stroke="white" stroke-width="4.77738"/>
<path opacity="0.59" d="M241.452 369.594L179.877 431.17" stroke="white" stroke-width="4.77738"/>
<path opacity="0.59" d="M241.453 369.594L303.028 431.17" stroke="white" stroke-width="4.77738"/>
<path opacity="0.59" d="M303.028 369.594L364.603 431.17" stroke="white" stroke-width="4.77738"/>
<path opacity="0.59" d="M364.603 369.594L426.178 431.17" stroke="white" stroke-width="4.77738"/>
<path opacity="0.59" d="M426.178 369.594L487.753 431.17" stroke="white" stroke-width="4.77738"/>
<path opacity="0.59" d="M487.753 369.594L549.328 431.17" stroke="white" stroke-width="4.77738"/>
<path opacity="0.59" d="M549.328 369.594L610.903 431.17" stroke="white" stroke-width="4.77738"/>
<path opacity="0.59" d="M610.903 369.594L672.478 431.17" stroke="white" stroke-width="4.77738"/>
<path opacity="0.59" d="M672.479 369.595L734.054 431.17" stroke="white" stroke-width="4.77738"/>
<path opacity="0.59" d="M795.629 369.595L734.054 431.17" stroke="white" stroke-width="4.77738"/>
<path opacity="0.52" d="M-4.84766 431.17L56.7275 492.745" stroke="white" stroke-width="4.77738"/>
<path opacity="0.52" d="M56.7275 431.17L118.303 492.745" stroke="white" stroke-width="4.77738"/>
<path opacity="0.52" d="M179.878 431.17L118.303 492.745" stroke="white" stroke-width="4.77738"/>
<path opacity="0.52" d="M241.452 431.17L179.877 492.745" stroke="white" stroke-width="4.77738"/>
<path opacity="0.52" d="M241.453 431.17L303.028 492.745" stroke="white" stroke-width="4.77738"/>
<path opacity="0.52" d="M303.028 431.17L364.603 492.745" stroke="white" stroke-width="4.77738"/>
<path opacity="0.52" d="M364.603 431.17L426.178 492.745" stroke="white" stroke-width="4.77738"/>
<path opacity="0.52" d="M487.753 431.17L426.178 492.745" stroke="white" stroke-width="4.77738"/>
<path opacity="0.52" d="M549.328 431.17L487.753 492.745" stroke="white" stroke-width="4.77738"/>
<path opacity="0.52" d="M549.328 431.17L610.903 492.745" stroke="white" stroke-width="4.77738"/>
<path opacity="0.52" d="M610.903 431.17L672.478 492.745" stroke="white" stroke-width="4.77738"/>
<path opacity="0.52" d="M672.479 431.17L734.054 492.745" stroke="white" stroke-width="4.77738"/>
<path opacity="0.52" d="M734.054 431.17L795.629 492.745" stroke="white" stroke-width="4.77738"/>
<path opacity="0.45" d="M56.7275 492.745L-4.84766 554.32" stroke="white" stroke-width="4.77738"/>
<path opacity="0.45" d="M118.303 492.745L56.7275 554.32" stroke="white" stroke-width="4.77738"/>
<path opacity="0.45" d="M118.303 492.745L179.878 554.32" stroke="white" stroke-width="4.77738"/>
<path opacity="0.45" d="M179.877 492.745L241.452 554.32" stroke="white" stroke-width="4.77738"/>
<path opacity="0.45" d="M241.453 492.745L303.028 554.32" stroke="white" stroke-width="4.77738"/>
<path opacity="0.45" d="M364.603 492.745L303.028 554.32" stroke="white" stroke-width="4.77738"/>
<path opacity="0.45" d="M364.603 492.745L426.178 554.32" stroke="white" stroke-width="4.77738"/>
<path opacity="0.45" d="M426.178 492.745L487.753 554.32" stroke="white" stroke-width="4.77738"/>
<path opacity="0.45" d="M549.328 492.745L487.753 554.32" stroke="white" stroke-width="4.77738"/>
<path opacity="0.45" d="M549.328 492.745L610.903 554.32" stroke="white" stroke-width="4.77738"/>
<path opacity="0.45" d="M672.478 492.745L610.903 554.32" stroke="white" stroke-width="4.77738"/>
<path opacity="0.45" d="M672.479 492.745L734.054 554.32" stroke="white" stroke-width="4.77738"/>
<path opacity="0.45" d="M795.629 492.745L734.054 554.32" stroke="white" stroke-width="4.77738"/>
<path opacity="0.38" d="M-4.84766 554.32L56.7275 615.895" stroke="white" stroke-width="4.77738"/>
<path opacity="0.38" d="M56.7275 554.32L118.303 615.895" stroke="white" stroke-width="4.77738"/>
<path opacity="0.38" d="M179.878 554.32L118.303 615.895" stroke="white" stroke-width="4.77738"/>
<path opacity="0.38" d="M179.877 554.32L241.452 615.895" stroke="white" stroke-width="4.77738"/>
<path opacity="0.38" d="M241.453 554.32L303.028 615.895" stroke="white" stroke-width="4.77738"/>
<path opacity="0.38" d="M364.603 554.32L303.028 615.895" stroke="white" stroke-width="4.77738"/>
<path opacity="0.38" d="M364.603 554.32L426.178 615.895" stroke="white" stroke-width="4.77738"/>
<path opacity="0.38" d="M426.178 554.32L487.753 615.895" stroke="white" stroke-width="4.77738"/>
<path opacity="0.38" d="M487.753 554.32L549.328 615.895" stroke="white" stroke-width="4.77738"/>
<path opacity="0.38" d="M549.328 554.32L610.903 615.895" stroke="white" stroke-width="4.77738"/>
<path opacity="0.38" d="M672.478 554.32L610.903 615.895" stroke="white" stroke-width="4.77738"/>
<path opacity="0.38" d="M672.479 554.32L734.054 615.895" stroke="white" stroke-width="4.77738"/>
<path opacity="0.38" d="M734.054 554.32L795.629 615.895" stroke="white" stroke-width="4.77738"/>
<path opacity="0.31" d="M-4.84766 615.896L56.7275 677.471" stroke="white" stroke-width="4.77738"/>
<path opacity="0.31" d="M56.7275 615.896L118.303 677.471" stroke="white" stroke-width="4.77738"/>
<path opacity="0.31" d="M118.303 615.896L179.878 677.471" stroke="white" stroke-width="4.77738"/>
<path opacity="0.31" d="M179.877 615.896L241.452 677.471" stroke="white" stroke-width="4.77738"/>
<path opacity="0.31" d="M303.028 615.896L241.453 677.471" stroke="white" stroke-width="4.77738"/>
<path opacity="0.31" d="M303.028 615.896L364.603 677.471" stroke="white" stroke-width="4.77738"/>
<path opacity="0.31" d="M364.603 615.896L426.178 677.471" stroke="white" stroke-width="4.77738"/>
<path opacity="0.31" d="M426.178 615.896L487.753 677.471" stroke="white" stroke-width="4.77738"/>
<path opacity="0.31" d="M549.328 615.896L487.753 677.471" stroke="white" stroke-width="4.77738"/>
<path opacity="0.31" d="M549.328 615.896L610.903 677.471" stroke="white" stroke-width="4.77738"/>
<path opacity="0.31" d="M610.903 615.896L672.478 677.471" stroke="white" stroke-width="4.77738"/>
<path opacity="0.31" d="M672.479 615.896L734.054 677.471" stroke="white" stroke-width="4.77738"/>
<path opacity="0.31" d="M795.629 615.896L734.054 677.471" stroke="white" stroke-width="4.77738"/>
<path opacity="0.24" d="M-4.84766 677.47L56.7275 739.045" stroke="white" stroke-width="4.77738"/>
<path opacity="0.24" d="M56.7275 677.47L118.303 739.045" stroke="white" stroke-width="4.77738"/>
<path opacity="0.24" d="M118.303 677.47L179.878 739.045" stroke="white" stroke-width="4.77738"/>
<path opacity="0.24" d="M241.452 677.47L179.877 739.045" stroke="white" stroke-width="4.77738"/>
<path opacity="0.24" d="M241.453 677.47L303.028 739.045" stroke="white" stroke-width="4.77738"/>
<path opacity="0.24" d="M364.603 677.47L303.028 739.045" stroke="white" stroke-width="4.77738"/>
<path opacity="0.24" d="M364.603 677.47L426.178 739.045" stroke="white" stroke-width="4.77738"/>
<path opacity="0.24" d="M487.753 677.47L426.178 739.045" stroke="white" stroke-width="4.77738"/>
<path opacity="0.24" d="M549.328 677.47L487.753 739.045" stroke="white" stroke-width="4.77738"/>
<path opacity="0.24" d="M610.903 677.47L549.328 739.045" stroke="white" stroke-width="4.77738"/>
<path opacity="0.24" d="M610.903 677.47L672.478 739.045" stroke="white" stroke-width="4.77738"/>
<path opacity="0.24" d="M672.479 677.47L734.054 739.046" stroke="white" stroke-width="4.77738"/>
<path opacity="0.24" d="M795.629 677.47L734.054 739.046" stroke="white" stroke-width="4.77738"/>
<path opacity="0.17" d="M-4.84766 739.045L56.7275 800.621" stroke="white" stroke-width="4.77738"/>
<path opacity="0.17" d="M118.303 739.045L56.7275 800.621" stroke="white" stroke-width="4.77738"/>
<path opacity="0.17" d="M118.303 739.045L179.878 800.621" stroke="white" stroke-width="4.77738"/>
<path opacity="0.17" d="M241.452 739.045L179.877 800.621" stroke="white" stroke-width="4.77738"/>
<path opacity="0.17" d="M241.453 739.045L303.028 800.621" stroke="white" stroke-width="4.77738"/>
<path opacity="0.17" d="M303.028 739.045L364.603 800.621" stroke="white" stroke-width="4.77738"/>
<path opacity="0.17" d="M364.603 739.045L426.178 800.621" stroke="white" stroke-width="4.77738"/>
<path opacity="0.17" d="M426.178 739.045L487.753 800.621" stroke="white" stroke-width="4.77738"/>
<path opacity="0.17" d="M487.753 739.045L549.328 800.621" stroke="white" stroke-width="4.77738"/>
<path opacity="0.17" d="M549.328 739.045L610.903 800.621" stroke="white" stroke-width="4.77738"/>
<path opacity="0.17" d="M610.903 739.045L672.478 800.621" stroke="white" stroke-width="4.77738"/>
<path opacity="0.17" d="M672.479 739.045L734.054 800.621" stroke="white" stroke-width="4.77738"/>
<path opacity="0.17" d="M795.629 739.045L734.054 800.621" stroke="white" stroke-width="4.77738"/>
<path opacity="0.1" d="M56.7275 800.621L-4.84766 862.196" stroke="white" stroke-width="4.77738"/>
<path opacity="0.1" d="M118.303 800.621L56.7275 862.196" stroke="white" stroke-width="4.77738"/>
<path opacity="0.1" d="M118.303 800.621L179.878 862.196" stroke="white" stroke-width="4.77738"/>
<path opacity="0.1" d="M241.452 800.621L179.877 862.196" stroke="white" stroke-width="4.77738"/>
<path opacity="0.1" d="M241.453 800.621L303.028 862.196" stroke="white" stroke-width="4.77738"/>
<path opacity="0.1" d="M303.028 800.621L364.603 862.196" stroke="white" stroke-width="4.77738"/>
<path opacity="0.1" d="M426.178 800.621L364.603 862.196" stroke="white" stroke-width="4.77738"/>
<path opacity="0.1" d="M426.178 800.621L487.753 862.196" stroke="white" stroke-width="4.77738"/>
<path opacity="0.1" d="M487.753 800.621L549.328 862.196" stroke="white" stroke-width="4.77738"/>
<path opacity="0.1" d="M549.328 800.621L610.903 862.196" stroke="white" stroke-width="4.77738"/>
<path opacity="0.1" d="M610.903 800.621L672.478 862.196" stroke="white" stroke-width="4.77738"/>
<path opacity="0.1" d="M672.479 800.621L734.054 862.196" stroke="white" stroke-width="4.77738"/>
<path opacity="0.1" d="M734.054 800.621L795.629 862.196" stroke="white" stroke-width="4.77738"/>
</g>
</g>
<defs>
<clipPath id="clip0_2802_27861">
<rect width="760.942" height="849.312" fill="white" transform="translate(0.0585938 0.143555)"/>
</clipPath>
<clipPath id="clip1_2802_27861">
<rect width="1509.65" height="849.312" fill="white" transform="translate(-374.297 0.143555)"/>
</clipPath>
</defs>
</svg>
