<svg width="154" height="43" viewBox="0 0 154 43" fill="none" xmlns="http://www.w3.org/2000/svg">
<g clip-path="url(#clip0_2802_28221)">
<path d="M34.2378 36.458C30.6213 37.0589 26.5495 37.9854 22.1743 39.3877C18.9118 40.4394 15.9529 41.5912 13.3227 42.7681C9.17504 33.2028 5.00212 23.6124 0.854492 14.022L9.45323 3.65537L10.9959 5.58346L5.68496 10.6917L17.6473 2.25312L18.3049 4.10609L8.41632 10.6917L27.1312 0.976074L28.0417 3.32985L11.8305 11.3928L34.3137 2.45344L34.1114 6.48491L5.88728 15.7498L13.4491 38.0105C15.9529 37.5097 18.7095 37.084 21.6432 36.7835C26.2966 36.3077 30.5201 36.2827 34.2378 36.458Z" fill="white"/>
<path d="M19.2156 29.4969C18.3811 29.1714 17.7235 28.6706 17.243 28.0195C16.7625 27.3685 16.4843 26.5672 16.459 25.6658H20.1514C20.202 26.1916 20.379 26.5922 20.7078 26.8677C21.0113 27.1431 21.4159 27.2683 21.9217 27.2683C22.4275 27.2683 22.8322 27.1431 23.1357 26.9178C23.4391 26.6924 23.5909 26.3669 23.5909 25.9412C23.5909 25.5906 23.4644 25.3152 23.2368 25.0898C23.0092 24.8645 22.7057 24.6641 22.3769 24.5389C22.0229 24.3887 21.5424 24.2134 20.9101 24.0381C19.9996 23.7627 19.2409 23.4873 18.6593 23.1868C18.0776 22.9113 17.5718 22.4857 17.1671 21.9348C16.7372 21.3839 16.5349 20.6828 16.5349 19.7813C16.5349 18.4792 17.0154 17.4526 17.9764 16.7014C18.9374 15.9502 20.1767 15.5996 21.7194 15.5996C23.2874 15.5996 24.5519 15.9752 25.513 16.7014C26.474 17.4526 26.9798 18.4792 27.0557 19.8064H23.2621C23.2368 19.3556 23.0598 19.0051 22.7563 18.7296C22.4528 18.4792 22.0482 18.329 21.5676 18.329C21.1377 18.329 20.8089 18.4291 20.556 18.6545C20.3031 18.8799 20.1767 19.1804 20.1767 19.606C20.1767 20.0568 20.4043 20.4073 20.8342 20.6577C21.2642 20.9081 21.947 21.1836 22.8575 21.484C23.7679 21.7845 24.5266 22.085 25.083 22.3605C25.6647 22.6359 26.1452 23.0365 26.5751 23.5874C27.0051 24.1133 27.2074 24.8144 27.2074 25.6407C27.2074 26.442 27.0051 27.1682 26.6004 27.8192C26.1958 28.4703 25.5888 28.9961 24.8048 29.3717C24.0208 29.7473 23.1104 29.9476 22.0229 29.9476C20.986 29.9977 20.0502 29.8224 19.2156 29.4969Z" fill="white"/>
<path d="M47.0857 19.8061C47.9203 20.6574 48.3249 21.8093 48.3249 23.3117V29.8472H44.8854V23.7875C44.8854 23.0613 44.6831 22.5104 44.3038 22.1098C43.9244 21.7091 43.3933 21.5088 42.7105 21.5088C42.0276 21.5088 41.4965 21.7091 41.1172 22.1098C40.7378 22.5104 40.5355 23.0613 40.5355 23.7875V29.8472H37.096V23.7875C37.096 23.0613 36.8937 22.5104 36.5143 22.1098C36.135 21.7091 35.6039 21.5088 34.921 21.5088C34.2382 21.5088 33.7071 21.7091 33.3277 22.1098C32.9484 22.5104 32.746 23.0613 32.746 23.7875V29.8472H29.2812V18.6793H32.746V20.0815C33.1001 19.6057 33.5553 19.2552 34.1117 18.9797C34.6681 18.7043 35.3257 18.5791 36.0338 18.5791C36.8937 18.5791 37.6524 18.7544 38.3099 19.13C38.9675 19.4805 39.4986 20.0064 39.8779 20.6825C40.2573 20.0565 40.8137 19.5557 41.4712 19.1801C42.1541 18.8045 42.8875 18.6041 43.6715 18.6041C45.1383 18.5541 46.2511 18.9797 47.0857 19.8061Z" fill="white"/>
<path d="M50.7278 21.2087C51.1577 20.3323 51.7647 19.6813 52.5234 19.2055C53.2821 18.7298 54.1167 18.5044 55.0524 18.5044C55.8364 18.5044 56.5446 18.6546 57.1515 18.9802C57.7585 19.3057 58.2137 19.7314 58.5425 20.2322V18.6546H62.0073V29.8225H58.5172V28.2701C58.1884 28.7959 57.7079 29.2216 57.1009 29.5221C56.494 29.8476 55.8111 29.9978 55.0018 29.9978C54.0914 29.9978 53.2568 29.7725 52.4981 29.2967C51.7394 28.8209 51.1577 28.1449 50.7025 27.2685C50.2725 26.392 50.0449 25.3904 50.0449 24.2386C50.0702 23.0867 50.2725 22.0851 50.7278 21.2087ZM57.8091 22.2354C57.3286 21.7346 56.7469 21.4842 56.064 21.4842C55.3812 21.4842 54.7995 21.7346 54.319 22.2103C53.8385 22.6861 53.6109 23.3622 53.6109 24.2136C53.6109 25.0649 53.8385 25.741 54.319 26.2418C54.7995 26.7426 55.3812 26.993 56.064 26.993C56.7469 26.993 57.3286 26.7426 57.8091 26.2418C58.2896 25.741 58.5172 25.0649 58.5172 24.2136C58.5172 23.4123 58.2643 22.7362 57.8091 22.2354Z" fill="white"/>
<path d="M69.4675 19.08C70.0744 18.7295 70.7573 18.5542 71.4907 18.5542V22.185H70.5297C69.6698 22.185 69.0122 22.3603 68.5823 22.7359C68.1524 23.1115 67.9248 23.7375 67.9248 24.664V29.8473H64.46V18.6794H67.9248V20.5324C68.3547 19.9064 68.8605 19.4306 69.4675 19.08Z" fill="white"/>
<path d="M79.4327 26.9428V29.8475H77.6624C76.3978 29.8475 75.4368 29.547 74.7287 28.946C74.0205 28.3451 73.6665 27.3435 73.6665 25.9663V21.5091H72.3008V18.6796H73.6665V15.9502H77.1313V18.6796H79.4074V21.5091H77.1313V25.9913C77.1313 26.3168 77.2071 26.5672 77.3842 26.7175C77.5359 26.8677 77.8141 26.9428 78.1934 26.9428H79.4327Z" fill="white"/>
<path d="M88.0057 29.4969C87.1711 29.1714 86.5135 28.6706 86.033 28.0195C85.5525 27.3685 85.2743 26.5672 85.249 25.6658H88.9414C88.992 26.1916 89.169 26.5922 89.4978 26.8677C89.8013 27.1431 90.2059 27.2683 90.7117 27.2683C91.2176 27.2683 91.6222 27.1431 91.9257 26.9178C92.2292 26.6924 92.3809 26.3669 92.3809 25.9412C92.3809 25.5906 92.2545 25.3152 92.0268 25.0898C91.7992 24.8645 91.4958 24.6641 91.167 24.5389C90.8129 24.3887 90.3324 24.2134 89.7001 24.0381C88.7897 23.7627 88.031 23.4873 87.4493 23.1868C86.8676 22.9113 86.3618 22.4857 85.9572 21.9348C85.5272 21.3839 85.3249 20.6828 85.3249 19.7813C85.3249 18.4792 85.8054 17.4526 86.7664 16.7014C87.7275 15.9502 88.9667 15.5996 90.5094 15.5996C92.0774 15.5996 93.342 15.9752 94.303 16.7014C95.264 17.4526 95.7698 18.4792 95.8457 19.8064H92.1027C92.0774 19.3556 91.9004 19.0051 91.5969 18.7296C91.2934 18.4792 90.8888 18.329 90.4083 18.329C89.9783 18.329 89.6496 18.4291 89.3966 18.6545C89.1437 18.8799 89.0173 19.1804 89.0173 19.606C89.0173 20.0568 89.2449 20.4073 89.6748 20.6577C90.1048 20.9081 90.7876 21.1836 91.6981 21.484C92.6085 21.7845 93.3672 22.085 93.9236 22.3605C94.5053 22.6359 94.9858 23.0365 95.4158 23.5874C95.8457 24.1133 96.048 24.8144 96.048 25.6407C96.048 26.442 95.8457 27.1682 95.4411 27.8192C95.0364 28.4703 94.4294 28.9961 93.6454 29.3717C92.8614 29.7473 91.951 29.9476 90.8635 29.9476C89.7507 29.9977 88.815 29.8224 88.0057 29.4969Z" fill="white"/>
<path d="M98.1213 21.2087C98.6018 20.3323 99.2593 19.6813 100.119 19.2055C100.979 18.7298 101.965 18.5044 103.053 18.5044C104.469 18.5044 105.658 18.88 106.594 19.6062C107.555 20.3323 108.162 21.384 108.465 22.7111H104.798C104.494 21.8598 103.887 21.4341 103.002 21.4341C102.37 21.4341 101.864 21.6845 101.485 22.1603C101.106 22.636 100.929 23.3371 100.929 24.2636C100.929 25.1651 101.106 25.8662 101.485 26.367C101.864 26.8428 102.37 27.0932 103.002 27.0932C103.887 27.0932 104.494 26.6675 104.798 25.8161H108.49C108.187 27.1182 107.555 28.1449 106.619 28.8961C105.658 29.6473 104.469 30.0229 103.078 30.0229C101.965 30.0229 100.979 29.7975 100.144 29.3217C99.2846 28.846 98.6271 28.1949 98.1466 27.3185C97.666 26.4421 97.4384 25.4405 97.4384 24.2636C97.4131 23.0867 97.6407 22.0851 98.1213 21.2087Z" fill="white"/>
<path d="M120.377 19.8311C121.161 20.6825 121.541 21.8344 121.541 23.3368V29.8723H118.101V23.7875C118.101 23.0363 117.899 22.4604 117.519 22.0347C117.14 21.609 116.609 21.4087 115.951 21.4087C115.294 21.4087 114.763 21.609 114.383 22.0347C114.004 22.4604 113.802 23.0363 113.802 23.7875V29.8472H110.337V15.0234H113.802V20.1817C114.156 19.6809 114.636 19.3053 115.243 19.0048C115.85 18.7043 116.533 18.5541 117.292 18.5541C118.556 18.5541 119.593 18.9798 120.377 19.8311Z" fill="white"/>
<path d="M126.119 29.2967C125.233 28.8209 124.551 28.1699 124.045 27.2935C123.539 26.4171 123.286 25.4155 123.286 24.2386C123.286 23.0867 123.539 22.0851 124.045 21.2087C124.551 20.3323 125.259 19.6562 126.144 19.2055C127.029 18.7298 128.041 18.5044 129.128 18.5044C130.241 18.5044 131.227 18.7298 132.112 19.2055C132.998 19.6813 133.706 20.3323 134.212 21.2087C134.717 22.0851 134.97 23.0867 134.97 24.2386C134.97 25.3904 134.717 26.392 134.186 27.2685C133.655 28.1449 132.947 28.8209 132.062 29.2717C131.177 29.7474 130.165 29.9728 129.052 29.9728C127.99 29.9978 127.004 29.7725 126.119 29.2967ZM130.797 26.3169C131.253 25.8412 131.506 25.14 131.506 24.2636C131.506 23.3622 131.278 22.6861 130.823 22.2103C130.367 21.7346 129.811 21.4842 129.154 21.4842C128.471 21.4842 127.914 21.7095 127.484 22.1853C127.029 22.6611 126.827 23.3622 126.827 24.2636C126.827 25.1651 127.054 25.8412 127.484 26.3169C127.914 26.7927 128.471 27.0431 129.128 27.0431C129.76 27.0431 130.317 26.7927 130.797 26.3169Z" fill="white"/>
<path d="M139.016 29.2967C138.131 28.8209 137.448 28.1699 136.942 27.2935C136.436 26.4171 136.184 25.4155 136.184 24.2386C136.184 23.0867 136.436 22.0851 136.942 21.2087C137.448 20.3323 138.156 19.6562 139.041 19.2055C139.927 18.7298 140.938 18.5044 142.026 18.5044C143.138 18.5044 144.125 18.7298 145.01 19.2055C145.895 19.6813 146.603 20.3323 147.109 21.2087C147.615 22.0851 147.868 23.0867 147.868 24.2386C147.868 25.3904 147.615 26.392 147.084 27.2685C146.553 28.1449 145.845 28.8209 144.959 29.2717C144.074 29.7474 143.063 29.9728 141.95 29.9728C140.888 29.9978 139.901 29.7725 139.016 29.2967ZM143.67 26.3169C144.125 25.8412 144.378 25.14 144.378 24.2636C144.378 23.3622 144.15 22.6861 143.695 22.2103C143.24 21.7346 142.683 21.4842 142.026 21.4842C141.343 21.4842 140.786 21.7095 140.357 22.1853C139.901 22.6611 139.699 23.3622 139.699 24.2636C139.699 25.1651 139.927 25.8412 140.357 26.3169C140.786 26.7927 141.343 27.0431 142 27.0431C142.658 27.0431 143.214 26.7927 143.67 26.3169Z" fill="white"/>
<path d="M153.204 15.0234V29.8472H149.739V15.0234H153.204Z" fill="white"/>
<path d="M39.7513 37.0841C39.549 36.984 39.3719 36.8588 39.2708 36.7085C39.1443 36.5333 39.0938 36.358 39.0938 36.1326H39.7766C39.8019 36.3079 39.8525 36.4331 39.9789 36.5333C40.1054 36.6334 40.2571 36.6835 40.4594 36.6835C40.687 36.6835 40.8388 36.6334 40.9652 36.5333C41.0917 36.4331 41.1423 36.3079 41.1423 36.1326C41.1423 36.0074 41.117 35.9073 41.0411 35.8321C40.9652 35.757 40.8641 35.6819 40.7629 35.6569C40.6618 35.6068 40.4847 35.5567 40.3077 35.5066C40.0548 35.4315 39.8525 35.3814 39.7007 35.3063C39.549 35.2312 39.4225 35.131 39.2961 34.9808C39.1696 34.8305 39.119 34.6553 39.119 34.4049C39.119 34.1795 39.1696 34.0042 39.2961 33.8289C39.3972 33.6536 39.549 33.5284 39.7513 33.4533C39.9536 33.3782 40.1812 33.3281 40.4341 33.3281C40.8135 33.3281 41.117 33.4283 41.3446 33.6036C41.5722 33.7788 41.724 34.0293 41.7492 34.3548H41.0664C41.0664 34.2045 40.9905 34.1044 40.8641 34.0042C40.7376 33.904 40.5859 33.854 40.3836 33.854C40.2065 33.854 40.0548 33.9041 39.9536 33.9792C39.8272 34.0793 39.7766 34.2045 39.7766 34.3798C39.7766 34.505 39.8019 34.5801 39.8778 34.6553C39.9536 34.7304 40.0295 34.7805 40.1559 34.8305C40.2824 34.8806 40.4089 34.9307 40.6112 34.9808C40.8641 35.0559 41.0664 35.131 41.2434 35.1811C41.3952 35.2562 41.5469 35.3564 41.6481 35.5066C41.7492 35.6569 41.8251 35.8321 41.8251 36.0825C41.8251 36.2829 41.7745 36.4581 41.6734 36.6334C41.5722 36.8087 41.4205 36.9339 41.2181 37.0341C41.0158 37.1342 40.7882 37.1843 40.51 37.1843C40.1812 37.2094 39.9536 37.1593 39.7513 37.0841Z" fill="white"/>
<path d="M47.2882 33.3784V33.8792H46.2766V37.1595H45.6443V33.8792H44.6074V33.3784H47.2882Z" fill="white"/>
<path d="M50.8538 33.3784V35.8073C50.8538 36.0828 50.9297 36.3081 51.0815 36.4584C51.2332 36.6086 51.4355 36.6837 51.7137 36.6837C51.9919 36.6837 52.1942 36.6086 52.346 36.4584C52.4977 36.3081 52.5736 36.1078 52.5736 35.8073V33.3784H53.2058V35.7823C53.2058 36.0828 53.13 36.3582 53.0035 36.5585C52.8771 36.7839 52.6747 36.9341 52.4471 37.0343C52.2195 37.1344 51.9666 37.1845 51.6884 37.1845C51.4102 37.1845 51.1573 37.1344 50.9297 37.0343C50.7021 36.9341 50.5251 36.7588 50.3986 36.5585C50.2722 36.3332 50.1963 36.0828 50.1963 35.7823V33.3784H50.8538Z" fill="white"/>
<path d="M58.694 33.6034C58.9975 33.7537 59.2504 33.979 59.4021 34.2795C59.5792 34.58 59.655 34.9055 59.655 35.2811C59.655 35.6567 59.5792 36.0073 59.4021 36.2827C59.2251 36.5582 58.9975 36.7835 58.694 36.9338C58.3905 37.084 58.0365 37.1591 57.6318 37.1591H56.3926V33.353H57.6318C58.0112 33.3781 58.3905 33.4532 58.694 33.6034ZM58.6434 36.3078C58.871 36.0574 58.9975 35.7318 58.9975 35.2811C58.9975 34.8304 58.871 34.5049 58.6434 34.2545C58.4158 34.0041 58.0617 33.8789 57.6065 33.8789H56.9995V36.6583H57.6318C58.0617 36.6583 58.4158 36.5331 58.6434 36.3078Z" fill="white"/>
<path d="M63.2211 33.879V34.9808H64.5362V35.4816H63.2211V36.6334H64.7133V37.1342H62.5889V33.3281H64.7133V33.8289H63.2211V33.879Z" fill="white"/>
<path d="M70.9347 37.1845H70.3025L68.4057 34.355V37.1845H67.7734V33.3784H68.4057L70.3025 36.208V33.3784H70.9347V37.1845Z" fill="white"/>
<path d="M76.5489 33.3784V33.8792H75.5373V37.1595H74.9051V33.8792H73.8682V33.3784H76.5489Z" fill="white"/>
<path d="M80.0648 37.0841C79.8625 36.984 79.6854 36.8588 79.5843 36.7085C79.4578 36.5333 79.4072 36.358 79.4072 36.1326H80.0901C80.1154 36.3079 80.1659 36.4331 80.2924 36.5333C80.4188 36.6334 80.5706 36.6835 80.7729 36.6835C81.0005 36.6835 81.1523 36.6334 81.2787 36.5333C81.4052 36.4331 81.4558 36.3079 81.4558 36.1326C81.4558 36.0074 81.4305 35.9073 81.3546 35.8321C81.2787 35.757 81.1776 35.6819 81.0764 35.6569C80.9752 35.6068 80.7982 35.5567 80.6212 35.5066C80.3683 35.4315 80.1659 35.3814 80.0142 35.3063C79.8625 35.2312 79.736 35.131 79.6095 34.9808C79.4831 34.8305 79.4325 34.6553 79.4325 34.4049C79.4325 34.1795 79.4831 34.0042 79.6095 33.8289C79.7107 33.6536 79.8625 33.5284 80.0648 33.4533C80.2671 33.3782 80.4947 33.3281 80.7476 33.3281C81.127 33.3281 81.4305 33.4283 81.6581 33.6036C81.8857 33.7788 82.0374 34.0293 82.0627 34.3548H81.3799C81.3799 34.2045 81.304 34.1044 81.1776 34.0042C81.0511 33.904 80.8994 33.854 80.697 33.854C80.52 33.854 80.3683 33.9041 80.2671 33.9792C80.1406 34.0793 80.0901 34.2045 80.0901 34.3798C80.0901 34.505 80.1154 34.5801 80.1912 34.6553C80.2671 34.7304 80.343 34.7805 80.4694 34.8305C80.5959 34.8806 80.7223 34.9307 80.9247 34.9808C81.1776 35.0559 81.3799 35.131 81.5569 35.1811C81.7087 35.2562 81.8604 35.3564 81.9616 35.5066C82.0627 35.6569 82.1386 35.8321 82.1386 36.0825C82.1386 36.2829 82.088 36.4581 81.9868 36.6334C81.8857 36.8087 81.7339 36.9339 81.5316 37.0341C81.3293 37.1342 81.1017 37.1843 80.8235 37.1843C80.52 37.2094 80.2924 37.1593 80.0648 37.0841Z" fill="white"/>
<path d="M89.472 37.0841C89.2697 36.984 89.0927 36.8588 88.9915 36.7085C88.865 36.5333 88.8145 36.358 88.8145 36.1326H89.4973C89.5226 36.3079 89.5732 36.4331 89.6996 36.5333C89.8261 36.6334 89.9778 36.6835 90.1801 36.6835C90.4078 36.6835 90.5595 36.6334 90.6859 36.5333C90.8124 36.4331 90.863 36.3079 90.863 36.1326C90.863 36.0074 90.8377 35.9073 90.7618 35.8321C90.6859 35.757 90.5848 35.6819 90.4836 35.6569C90.3825 35.6068 90.2054 35.5567 90.0284 35.5066C89.7755 35.4315 89.5732 35.3814 89.4214 35.3063C89.2697 35.2312 89.1432 35.131 89.0168 34.9808C88.9156 34.8305 88.8397 34.6553 88.8397 34.4049C88.8397 34.1795 88.8903 34.0042 89.0168 33.8289C89.1179 33.6536 89.2697 33.5284 89.472 33.4533C89.6743 33.3782 89.9019 33.3281 90.1548 33.3281C90.5342 33.3281 90.8377 33.4283 91.0653 33.6036C91.2929 33.7788 91.4447 34.0293 91.4699 34.3548H90.7871C90.7871 34.2045 90.7112 34.1044 90.5848 34.0042C90.4583 33.904 90.3066 33.854 90.1043 33.854C89.9272 33.854 89.7755 33.9041 89.6743 33.9792C89.5479 34.0793 89.4973 34.2045 89.4973 34.3798C89.4973 34.505 89.5226 34.5801 89.5985 34.6553C89.6743 34.7304 89.7502 34.7805 89.8767 34.8305C89.9778 34.8806 90.1296 34.9307 90.3319 34.9808C90.5848 35.0559 90.7871 35.131 90.9641 35.1811C91.1159 35.2562 91.2676 35.3564 91.3688 35.5066C91.4699 35.6569 91.5458 35.8321 91.5458 36.0825C91.5458 36.2829 91.4952 36.4581 91.3941 36.6334C91.2929 36.8087 91.1412 36.9339 90.9389 37.0341C90.7365 37.1342 90.5089 37.1843 90.2307 37.1843C89.9019 37.2094 89.6743 37.1593 89.472 37.0841Z" fill="white"/>
<path d="M97.0343 33.3784V33.8792H96.0227V37.1595H95.3904V33.8792H94.3535V33.3784H97.0343Z" fill="white"/>
<path d="M100.6 33.3784V35.8073C100.6 36.0828 100.676 36.3081 100.828 36.4584C100.979 36.6086 101.182 36.6837 101.46 36.6837C101.738 36.6837 101.94 36.6086 102.092 36.4584C102.244 36.3081 102.32 36.1078 102.32 35.8073V33.3784H102.952V35.7823C102.952 36.0828 102.876 36.3582 102.75 36.5585C102.623 36.7839 102.421 36.9341 102.193 37.0343C101.966 37.1344 101.713 37.1845 101.435 37.1845C101.156 37.1845 100.903 37.1344 100.676 37.0343C100.448 36.9341 100.271 36.7588 100.145 36.5585C100.018 36.3332 99.9424 36.0828 99.9424 35.7823V33.3784H100.6Z" fill="white"/>
<path d="M108.415 33.6034C108.718 33.7537 108.971 33.979 109.123 34.2795C109.3 34.58 109.376 34.9055 109.376 35.2811C109.376 35.6567 109.3 36.0073 109.123 36.2827C108.946 36.5582 108.718 36.7835 108.415 36.9338C108.111 37.084 107.757 37.1591 107.353 37.1591H106.113V33.353H107.353C107.757 33.3781 108.111 33.4532 108.415 33.6034ZM108.364 36.3078C108.592 36.0574 108.718 35.7318 108.718 35.2811C108.718 34.8304 108.592 34.5049 108.364 34.2545C108.137 34.0041 107.782 33.8789 107.327 33.8789H106.695V36.6583H107.327C107.782 36.6583 108.137 36.5331 108.364 36.3078Z" fill="white"/>
<path d="M115.167 33.3784L113.903 35.8073V37.1845H113.27V35.8073L112.006 33.3784H112.714L113.599 35.2314L114.484 33.3784H115.167Z" fill="white"/>
<path d="M124.272 35.0558C124.171 35.231 124.045 35.3562 123.842 35.4814C123.64 35.5816 123.387 35.6317 123.058 35.6317H122.375V37.1591H121.743V33.353H123.058C123.362 33.353 123.589 33.4031 123.817 33.5033C124.045 33.6034 124.171 33.7286 124.272 33.9039C124.373 34.0792 124.424 34.2545 124.424 34.4798C124.399 34.7052 124.348 34.8805 124.272 35.0558ZM123.564 34.9556C123.691 34.8554 123.741 34.7052 123.741 34.5049C123.741 34.0792 123.513 33.8789 123.033 33.8789H122.35V35.1058H123.033C123.286 35.1309 123.463 35.0808 123.564 34.9556Z" fill="white"/>
<path d="M128.066 36.9591C127.762 36.7838 127.534 36.5584 127.357 36.258C127.18 35.9575 127.104 35.632 127.104 35.2564C127.104 34.8807 127.18 34.5552 127.357 34.2547C127.534 33.9543 127.762 33.7289 128.066 33.5536C128.369 33.3783 128.698 33.3032 129.052 33.3032C129.406 33.3032 129.735 33.3783 130.038 33.5536C130.342 33.7289 130.569 33.9543 130.746 34.2547C130.923 34.5552 130.999 34.8807 130.999 35.2564C130.999 35.632 130.923 35.9575 130.746 36.258C130.569 36.5584 130.342 36.7838 130.038 36.9591C129.735 37.1344 129.406 37.2095 129.052 37.2095C128.698 37.2095 128.369 37.1344 128.066 36.9591ZM129.735 36.5084C129.937 36.3832 130.089 36.2329 130.19 36.0076C130.291 35.7822 130.367 35.5568 130.367 35.2564C130.367 34.9559 130.316 34.7305 130.19 34.5302C130.063 34.3299 129.912 34.1546 129.735 34.0544C129.532 33.9292 129.305 33.8791 129.052 33.8791C128.799 33.8791 128.571 33.9292 128.369 34.0544C128.167 34.1796 128.015 34.3299 127.914 34.5302C127.813 34.7305 127.737 34.9809 127.737 35.2564C127.737 35.5318 127.787 35.7822 127.914 36.0076C128.04 36.2329 128.192 36.3832 128.369 36.5084C128.546 36.6336 128.799 36.6836 129.052 36.6836C129.305 36.6836 129.532 36.6085 129.735 36.5084Z" fill="white"/>
<path d="M135.931 37.1845L135.045 35.6571H134.565V37.1845H133.933V33.3784H135.248C135.551 33.3784 135.779 33.4285 136.006 33.5287C136.209 33.6288 136.36 33.7791 136.462 33.9293C136.563 34.1046 136.613 34.2799 136.613 34.5052C136.613 34.7556 136.538 34.981 136.386 35.1813C136.234 35.3816 136.006 35.5319 135.728 35.582L136.689 37.1595H135.931V37.1845ZM134.59 35.1563H135.273C135.501 35.1563 135.678 35.1062 135.804 34.981C135.931 34.8558 135.981 34.7055 135.981 34.5052C135.981 34.3049 135.931 34.1547 135.804 34.0545C135.678 33.9543 135.501 33.8792 135.273 33.8792H134.59V35.1563Z" fill="white"/>
<path d="M142.229 33.3784V33.8792H141.217V37.1595H140.585V33.8792H139.548V33.3784H142.229Z" fill="white"/>
<path d="M147.489 36.4083H145.896L145.618 37.1845H144.96L146.326 33.3784H147.059L148.425 37.1845H147.767L147.489 36.4083ZM147.312 35.8824L146.68 34.1296L146.047 35.8824H147.312Z" fill="white"/>
<path d="M151.965 36.6583H153.255V37.1591H151.333V33.353H151.965V36.6583Z" fill="white"/>
</g>
<defs>
<clipPath id="clip0_2802_28221">
<rect width="152.4" height="41.8171" fill="white" transform="translate(0.854492 0.976074)"/>
</clipPath>
</defs>
</svg>
