<svg width="52" height="53" viewBox="0 0 52 53" fill="none" xmlns="http://www.w3.org/2000/svg">
<g clip-path="url(#clip0_2802_28257)">
<path d="M43.9019 44.9438C39.2521 45.705 34.017 46.8785 28.3917 48.6547C24.1971 49.9868 20.3927 51.4459 17.011 52.9366C11.6783 40.8205 6.31313 28.6727 0.980469 16.5248L12.036 3.39378L14.0195 5.83603L7.19107 12.3064L22.5713 1.61759L23.4167 3.96469L10.7028 12.3064L34.7648 0L35.9354 2.98145L15.0925 13.1945L43.9995 1.87134L43.7393 6.97786L7.4512 18.7134L17.1736 46.9102C20.3927 46.2759 23.9369 45.7367 27.7088 45.3561C33.6918 44.7535 39.122 44.7217 43.9019 44.9438Z" fill="#735DFF"/>
</g>
<defs>
<clipPath id="clip0_2802_28257">
<rect width="50.1805" height="52.9683" fill="white" transform="translate(0.980469)"/>
</clipPath>
</defs>
</svg>
