<svg width="184" height="51" viewBox="0 0 184 51" fill="none" xmlns="http://www.w3.org/2000/svg">
<path d="M40.3055 43.097C35.939 43.8226 31.023 44.9412 25.7405 46.6342C21.8016 47.9039 18.2291 49.2946 15.0535 50.7155C10.0458 39.1668 5.00765 27.5878 0 16.0088L10.3817 3.49267L12.2443 5.82056L5.83208 11.988L20.2749 1.79966L21.0688 4.03685L9.1298 11.988L31.7253 0.257812L32.8245 3.09965L13.252 12.8345L40.3971 2.04152L40.1528 6.90892L6.07636 18.0949L15.2062 44.9714C18.2291 44.3668 21.5573 43.8528 25.0993 43.49C30.7177 42.9156 35.8169 42.8854 40.3055 43.097Z" fill="#735DFF"/>
<path d="M22.1681 34.6925C21.1605 34.2995 20.3666 33.6948 19.7864 32.9088C19.2063 32.1228 18.8704 31.1553 18.8398 30.067H23.2979C23.3589 30.7018 23.5727 31.1856 23.9696 31.5181C24.336 31.8507 24.8246 32.0018 25.4353 32.0018C26.046 32.0018 26.5345 31.8507 26.9009 31.5786C27.2674 31.3065 27.4506 30.9135 27.4506 30.3995C27.4506 29.9763 27.2979 29.6437 27.0231 29.3716C26.7483 29.0995 26.3819 28.8577 25.9849 28.7065C25.5574 28.5251 24.9773 28.3135 24.2139 28.1019C23.1147 27.7693 22.1986 27.4368 21.4963 27.074C20.794 26.7414 20.1834 26.2275 19.6948 25.5623C19.1757 24.8972 18.9314 24.0507 18.9314 22.9624C18.9314 21.3903 19.5116 20.1508 20.6719 19.2438C21.8322 18.3368 23.3284 17.9136 25.191 17.9136C27.0841 17.9136 28.6109 18.3671 29.7712 19.2438C30.9315 20.1508 31.5422 21.3903 31.6338 22.9926H27.0536C27.0231 22.4484 26.8093 22.0252 26.4429 21.6926C26.0765 21.3903 25.588 21.2089 25.0078 21.2089C24.4887 21.2089 24.0918 21.3298 23.7864 21.6019C23.4811 21.874 23.3284 22.2368 23.3284 22.7507C23.3284 23.2949 23.6032 23.7182 24.1223 24.0205C24.6414 24.3228 25.4658 24.6554 26.5651 25.0182C27.6643 25.381 28.5803 25.7437 29.2521 26.0763C29.9544 26.4089 30.5345 26.8926 31.0536 27.5577C31.5727 28.1926 31.817 29.0391 31.817 30.0367C31.817 31.0042 31.5727 31.8809 31.0842 32.6669C30.5956 33.453 29.8628 34.0879 28.9162 34.5413C27.9696 34.9948 26.8704 35.2367 25.5574 35.2367C24.3055 35.2972 23.1757 35.0855 22.1681 34.6925Z" fill="black"/>
<path d="M55.8166 22.9926C56.8242 24.0205 57.3128 25.4112 57.3128 27.2251V35.1158H53.1601V27.7996C53.1601 26.9228 52.9158 26.2577 52.4578 25.774C51.9998 25.2903 51.3585 25.0484 50.5341 25.0484C49.7097 25.0484 49.0684 25.2903 48.6104 25.774C48.1524 26.2577 47.9081 26.9228 47.9081 27.7996V35.1158H43.7555V27.7996C43.7555 26.9228 43.5112 26.2577 43.0532 25.774C42.5951 25.2903 41.9539 25.0484 41.1295 25.0484C40.3051 25.0484 39.6638 25.2903 39.2058 25.774C38.7478 26.2577 38.5035 26.9228 38.5035 27.7996V35.1158H34.3203V21.6322H38.5035V23.3252C38.931 22.7508 39.4806 22.3275 40.1524 21.9949C40.8241 21.6624 41.618 21.5112 42.473 21.5112C43.5112 21.5112 44.4272 21.7229 45.2211 22.1763C46.015 22.5996 46.6562 23.2345 47.1142 24.0507C47.5723 23.2949 48.244 22.6903 49.0379 22.2368C49.8623 21.7833 50.7478 21.5415 51.6944 21.5415C53.4654 21.481 54.8089 21.9949 55.8166 22.9926Z" fill="black"/>
<path d="M60.2151 24.686C60.7341 23.6279 61.467 22.8418 62.383 22.2674C63.299 21.693 64.3067 21.4209 65.4364 21.4209C66.383 21.4209 67.238 21.6023 67.9708 21.9953C68.7036 22.3883 69.2533 22.9023 69.6502 23.5069V21.6023H73.8334V35.0859H69.6197V33.2115C69.2227 33.8464 68.6426 34.3603 67.9097 34.7231C67.1769 35.1161 66.3525 35.2975 65.3754 35.2975C64.2761 35.2975 63.2685 35.0254 62.3525 34.451C61.4364 33.8766 60.7341 33.0603 60.1845 32.0022C59.6654 30.9441 59.3906 29.7348 59.3906 28.3441C59.4212 26.9534 59.6654 25.7441 60.2151 24.686ZM68.7647 25.9255C68.1845 25.3209 67.4823 25.0185 66.6578 25.0185C65.8334 25.0185 65.1311 25.3209 64.5509 25.8953C63.9708 26.4697 63.696 27.286 63.696 28.3139C63.696 29.3418 63.9708 30.158 64.5509 30.7627C65.1311 31.3673 65.8334 31.6697 66.6578 31.6697C67.4823 31.6697 68.1845 31.3673 68.7647 30.7627C69.3449 30.158 69.6197 29.3418 69.6197 28.3139C69.6197 27.3464 69.3143 26.5302 68.7647 25.9255Z" fill="black"/>
<path d="M82.8388 22.1158C83.5716 21.6926 84.396 21.481 85.2815 21.481V25.8646H84.1212C83.0831 25.8646 82.2892 26.0763 81.7701 26.5298C81.251 26.9832 80.9762 27.739 80.9762 28.8576V35.1157H76.793V21.6321H80.9762V23.8693C81.4953 23.1135 82.106 22.5391 82.8388 22.1158Z" fill="black"/>
<path d="M94.8724 31.6089V35.1158H92.735C91.2083 35.1158 90.048 34.7531 89.193 34.0275C88.3381 33.3019 87.9106 32.0926 87.9106 30.4298V25.0485H86.2617V21.6322H87.9106V18.3369H92.0938V21.6322H94.8419V25.0485H92.0938V30.4601C92.0938 30.8531 92.1854 31.1554 92.3991 31.3368C92.5824 31.5182 92.9182 31.6089 93.3762 31.6089H94.8724Z" fill="black"/>
<path d="M105.223 34.6925C104.215 34.2995 103.421 33.6948 102.841 32.9088C102.261 32.1228 101.925 31.1553 101.895 30.067H106.353C106.414 30.7018 106.627 31.1856 107.024 31.5181C107.391 31.8507 107.879 32.0018 108.49 32.0018C109.101 32.0018 109.589 31.8507 109.956 31.5786C110.322 31.3065 110.505 30.9135 110.505 30.3995C110.505 29.9763 110.353 29.6437 110.078 29.3716C109.803 29.0995 109.437 28.8577 109.04 28.7065C108.612 28.5251 108.032 28.3135 107.269 28.1019C106.169 27.7693 105.253 27.4368 104.551 27.074C103.849 26.7414 103.238 26.2275 102.749 25.5623C102.23 24.8972 101.986 24.0507 101.986 22.9624C101.986 21.3903 102.566 20.1508 103.727 19.2438C104.887 18.3368 106.383 17.9136 108.246 17.9136C110.139 17.9136 111.666 18.3671 112.826 19.2438C113.986 20.1508 114.597 21.3903 114.688 22.9926H110.169C110.139 22.4484 109.925 22.0252 109.559 21.6926C109.192 21.3903 108.704 21.2089 108.124 21.2089C107.604 21.2089 107.208 21.3298 106.902 21.6019C106.597 21.874 106.444 22.2368 106.444 22.7507C106.444 23.2949 106.719 23.7182 107.238 24.0205C107.757 24.3228 108.582 24.6554 109.681 25.0182C110.78 25.381 111.696 25.7437 112.368 26.0763C113.07 26.4089 113.65 26.8926 114.169 27.5577C114.688 28.1926 114.933 29.0391 114.933 30.0367C114.933 31.0042 114.688 31.8809 114.2 32.6669C113.711 33.453 112.979 34.0879 112.032 34.5413C111.085 34.9948 109.986 35.2367 108.673 35.2367C107.33 35.2972 106.2 35.0855 105.223 34.6925Z" fill="black"/>
<path d="M117.436 24.686C118.016 23.6279 118.81 22.8418 119.848 22.2674C120.886 21.693 122.077 21.4209 123.39 21.4209C125.1 21.4209 126.535 21.8744 127.665 22.7511C128.825 23.6279 129.558 24.8976 129.925 26.4999H125.497C125.131 25.472 124.398 24.9581 123.329 24.9581C122.566 24.9581 121.955 25.2604 121.497 25.8348C121.039 26.4092 120.825 27.2557 120.825 28.3743C120.825 29.4627 121.039 30.3092 121.497 30.9138C121.955 31.4883 122.566 31.7906 123.329 31.7906C124.398 31.7906 125.131 31.2766 125.497 30.2487H129.955C129.589 31.8208 128.825 33.0603 127.696 33.9673C126.535 34.8743 125.1 35.3278 123.421 35.3278C122.077 35.3278 120.886 35.0557 119.879 34.4813C118.841 33.9068 118.047 33.1208 117.467 32.0627C116.886 31.0045 116.612 29.7952 116.612 28.3743C116.581 26.9534 116.856 25.7441 117.436 24.686Z" fill="black"/>
<path d="M144.306 23.0229C145.252 24.0508 145.71 25.4415 145.71 27.2554V35.146H141.558V27.7996C141.558 26.8926 141.313 26.1973 140.855 25.6833C140.397 25.1694 139.756 24.9275 138.962 24.9275C138.168 24.9275 137.527 25.1694 137.069 25.6833C136.611 26.1973 136.367 26.8926 136.367 27.7996V35.1158H132.184V17.2183H136.367V23.4461C136.794 22.8415 137.374 22.388 138.107 22.0252C138.84 21.6624 139.665 21.481 140.581 21.481C142.107 21.481 143.359 21.995 144.306 23.0229Z" fill="black"/>
<path d="M151.236 34.451C150.168 33.8766 149.343 33.0906 148.732 32.0324C148.122 30.9743 147.816 29.765 147.816 28.3441C147.816 26.9534 148.122 25.7441 148.732 24.686C149.343 23.6279 150.198 22.8116 151.267 22.2674C152.336 21.693 153.557 21.4209 154.87 21.4209C156.213 21.4209 157.404 21.693 158.473 22.2674C159.542 22.8418 160.397 23.6279 161.007 24.686C161.618 25.7441 161.923 26.9534 161.923 28.3441C161.923 29.7348 161.618 30.9441 160.977 32.0022C160.336 33.0603 159.481 33.8766 158.412 34.4208C157.343 34.9952 156.122 35.2673 154.778 35.2673C153.496 35.2975 152.305 35.0254 151.236 34.451ZM156.885 30.8534C157.435 30.279 157.74 29.4325 157.74 28.3743C157.74 27.286 157.465 26.4697 156.916 25.8953C156.366 25.3209 155.694 25.0185 154.9 25.0185C154.076 25.0185 153.404 25.2906 152.885 25.865C152.336 26.4395 152.091 27.286 152.091 28.3743C152.091 29.4627 152.366 30.279 152.885 30.8534C153.404 31.4278 154.076 31.7301 154.87 31.7301C155.633 31.7301 156.305 31.4278 156.885 30.8534Z" fill="black"/>
<path d="M166.81 34.451C165.742 33.8766 164.917 33.0906 164.307 32.0324C163.696 30.9743 163.391 29.765 163.391 28.3441C163.391 26.9534 163.696 25.7441 164.307 24.686C164.917 23.6279 165.772 22.8116 166.841 22.2674C167.91 21.693 169.131 21.4209 170.444 21.4209C171.788 21.4209 172.978 21.693 174.047 22.2674C175.116 22.8418 175.971 23.6279 176.582 24.686C177.192 25.7441 177.498 26.9534 177.498 28.3441C177.498 29.7348 177.192 30.9441 176.551 32.0022C175.91 33.0603 175.055 33.8766 173.986 34.4208C172.917 34.9952 171.696 35.2673 170.352 35.2673C169.07 35.2975 167.879 35.0254 166.81 34.451ZM172.429 30.8534C172.978 30.279 173.284 29.4325 173.284 28.3743C173.284 27.286 173.009 26.4697 172.459 25.8953C171.91 25.3209 171.238 25.0185 170.444 25.0185C169.62 25.0185 168.948 25.2906 168.429 25.865C167.879 26.4395 167.635 27.286 167.635 28.3743C167.635 29.4627 167.91 30.279 168.429 30.8534C168.948 31.4278 169.62 31.7301 170.414 31.7301C171.207 31.7301 171.879 31.4278 172.429 30.8534Z" fill="black"/>
<path d="M183.941 17.2183V35.1158H179.758V17.2183H183.941Z" fill="black"/>
<path d="M46.9619 43.8532C46.7176 43.7323 46.5038 43.5811 46.3817 43.3997C46.229 43.1881 46.168 42.9765 46.168 42.7044H46.9924C47.0229 42.916 47.084 43.0672 47.2367 43.1881C47.3893 43.309 47.5726 43.3695 47.8168 43.3695C48.0916 43.3695 48.2748 43.309 48.4275 43.1881C48.5802 43.0672 48.6413 42.916 48.6413 42.7044C48.6413 42.5532 48.6107 42.4323 48.5191 42.3416C48.4275 42.2509 48.3054 42.1602 48.1832 42.13C48.0611 42.0695 47.8474 42.009 47.6336 41.9486C47.3283 41.8579 47.084 41.7974 46.9008 41.7067C46.7176 41.616 46.5649 41.4951 46.4122 41.3137C46.2596 41.1323 46.1985 40.9207 46.1985 40.6183C46.1985 40.3463 46.2596 40.1346 46.4122 39.923C46.5344 39.7114 46.7176 39.5602 46.9619 39.4695C47.2061 39.3788 47.481 39.3184 47.7863 39.3184C48.2443 39.3184 48.6107 39.4393 48.8855 39.6509C49.1603 39.8625 49.3436 40.1649 49.3741 40.5579H48.5497C48.5497 40.3765 48.4581 40.2556 48.3054 40.1346C48.1527 40.0137 47.9695 39.9532 47.7252 39.9532C47.5115 39.9532 47.3283 40.0137 47.2061 40.1044C47.0535 40.2253 46.9924 40.3765 46.9924 40.5881C46.9924 40.7393 47.0229 40.83 47.1145 40.9207C47.2061 41.0114 47.2977 41.0718 47.4504 41.1323C47.6031 41.1928 47.7558 41.2532 48 41.3137C48.3054 41.4044 48.5497 41.4951 48.7634 41.5556C48.9466 41.6463 49.1298 41.7672 49.252 41.9486C49.3741 42.13 49.4657 42.3416 49.4657 42.6439C49.4657 42.8858 49.4046 43.0974 49.2825 43.309C49.1603 43.5206 48.9771 43.6718 48.7329 43.7927C48.4886 43.9137 48.2138 43.9741 47.8779 43.9741C47.481 44.0044 47.2061 43.9439 46.9619 43.8532Z" fill="black"/>
<path d="M56.0609 39.3794V39.984H54.8395V43.9445H54.0761V39.984H52.8242V39.3794H56.0609Z" fill="black"/>
<path d="M60.3681 39.3794V42.3119C60.3681 42.6445 60.4597 42.9166 60.6429 43.098C60.8261 43.2794 61.0704 43.3701 61.4063 43.3701C61.7422 43.3701 61.9864 43.2794 62.1696 43.098C62.3529 42.9166 62.4445 42.6747 62.4445 42.3119V39.3794H63.2078V42.2817C63.2078 42.6445 63.1162 42.977 62.9635 43.2189C62.8109 43.491 62.5666 43.6724 62.2918 43.7933C62.017 43.9142 61.7116 43.9747 61.3757 43.9747C61.0399 43.9747 60.7345 43.9142 60.4597 43.7933C60.1849 43.6724 59.9712 43.4608 59.8185 43.2189C59.6658 42.9468 59.5742 42.6445 59.5742 42.2817V39.3794H60.3681Z" fill="black"/>
<path d="M69.8333 39.651C70.1997 39.8323 70.5051 40.1044 70.6883 40.4672C70.902 40.83 70.9936 41.223 70.9936 41.6765C70.9936 42.13 70.902 42.5533 70.6883 42.8858C70.4745 43.2184 70.1997 43.4905 69.8333 43.6719C69.4669 43.8532 69.0394 43.9439 68.5509 43.9439H67.0547V39.3486H68.5509C69.0089 39.3789 69.4669 39.4696 69.8333 39.651ZM69.7723 42.916C70.0471 42.6137 70.1997 42.2207 70.1997 41.6765C70.1997 41.1323 70.0471 40.7393 69.7723 40.437C69.4974 40.1347 69.07 39.9835 68.5203 39.9835H67.7875V43.3393H68.5509C69.07 43.3393 69.4974 43.1881 69.7723 42.916Z" fill="black"/>
<path d="M75.2985 39.9835V41.3137H76.8863V41.9183H75.2985V43.309H77.1V43.9137H74.5352V39.3184H77.1V39.923H75.2985V39.9835Z" fill="black"/>
<path d="M84.6098 43.9747H83.8464L81.5563 40.5585V43.9747H80.793V39.3794H81.5563L83.8464 42.7956V39.3794H84.6098V43.9747Z" fill="black"/>
<path d="M91.389 39.3794V39.984H90.1676V43.9445H89.4042V39.984H88.1523V39.3794H91.389Z" fill="black"/>
<path d="M95.6337 43.8532C95.3895 43.7323 95.1757 43.5811 95.0536 43.3997C94.9009 43.1881 94.8398 42.9765 94.8398 42.7044H95.6643C95.6948 42.916 95.7559 43.0672 95.9085 43.1881C96.0612 43.309 96.2444 43.3695 96.4887 43.3695C96.7635 43.3695 96.9467 43.309 97.0994 43.1881C97.2521 43.0672 97.3131 42.916 97.3131 42.7044C97.3131 42.5532 97.2826 42.4323 97.191 42.3416C97.0994 42.2509 96.9773 42.1602 96.8551 42.13C96.733 42.0695 96.5192 42.009 96.3055 41.9486C96.0001 41.8579 95.7559 41.7974 95.5727 41.7067C95.3895 41.616 95.2368 41.4951 95.0841 41.3137C94.9314 41.1323 94.8704 40.9207 94.8704 40.6183C94.8704 40.3463 94.9314 40.1346 95.0841 39.923C95.2063 39.7114 95.3895 39.5602 95.6337 39.4695C95.878 39.3788 96.1528 39.3184 96.4582 39.3184C96.9162 39.3184 97.2826 39.4393 97.5574 39.6509C97.8322 39.8625 98.0154 40.1649 98.046 40.5579H97.2215C97.2215 40.3765 97.1299 40.2556 96.9773 40.1346C96.8246 40.0137 96.6414 39.9532 96.3971 39.9532C96.1834 39.9532 96.0002 40.0137 95.878 40.1044C95.7253 40.2253 95.6643 40.3765 95.6643 40.5881C95.6643 40.7393 95.6948 40.83 95.7864 40.9207C95.878 41.0114 95.9696 41.0718 96.1223 41.1323C96.275 41.1928 96.4276 41.2532 96.6719 41.3137C96.9773 41.4044 97.2215 41.4951 97.4353 41.5556C97.6185 41.6463 97.8017 41.7672 97.9238 41.9486C98.046 42.13 98.1376 42.3416 98.1376 42.6439C98.1376 42.8858 98.0765 43.0974 97.9544 43.309C97.8322 43.5206 97.649 43.6718 97.4047 43.7927C97.1605 43.9137 96.8857 43.9741 96.5498 43.9741C96.1834 44.0044 95.9086 43.9439 95.6337 43.8532Z" fill="black"/>
<path d="M106.993 43.8532C106.749 43.7323 106.535 43.5811 106.413 43.3997C106.26 43.1881 106.199 42.9765 106.199 42.7044H107.024C107.054 42.916 107.115 43.0672 107.268 43.1881C107.421 43.309 107.604 43.3695 107.848 43.3695C108.123 43.3695 108.306 43.309 108.459 43.1881C108.611 43.0672 108.673 42.916 108.673 42.7044C108.673 42.5532 108.642 42.4323 108.55 42.3416C108.459 42.2509 108.337 42.1602 108.214 42.13C108.092 42.0695 107.879 42.009 107.665 41.9486C107.36 41.8579 107.115 41.7974 106.932 41.7067C106.749 41.616 106.596 41.4951 106.443 41.3137C106.321 41.1323 106.23 40.9207 106.23 40.6183C106.23 40.3463 106.291 40.1346 106.443 39.923C106.566 39.7114 106.749 39.5602 106.993 39.4695C107.237 39.3788 107.512 39.3184 107.818 39.3184C108.276 39.3184 108.642 39.4393 108.917 39.6509C109.192 39.8625 109.375 40.1649 109.405 40.5579H108.581C108.581 40.3765 108.489 40.2556 108.337 40.1346C108.184 40.0137 108.001 39.9532 107.756 39.9532C107.543 39.9532 107.36 40.0137 107.237 40.1044C107.085 40.2253 107.024 40.3765 107.024 40.5881C107.024 40.7393 107.054 40.83 107.146 40.9207C107.237 41.0114 107.329 41.0718 107.482 41.1323C107.604 41.1928 107.787 41.2532 108.031 41.3137C108.337 41.4044 108.581 41.4951 108.795 41.5556C108.978 41.6463 109.161 41.7672 109.283 41.9486C109.405 42.13 109.497 42.3416 109.497 42.6439C109.497 42.8858 109.436 43.0974 109.314 43.309C109.192 43.5206 109.008 43.6718 108.764 43.7927C108.52 43.9137 108.245 43.9741 107.909 43.9741C107.512 44.0044 107.237 43.9439 106.993 43.8532Z" fill="black"/>
<path d="M116.123 39.3794V39.984H114.902V43.9445H114.139V39.984H112.887V39.3794H116.123Z" fill="black"/>
<path d="M120.427 39.3794V42.3119C120.427 42.6445 120.518 42.9166 120.702 43.098C120.885 43.2794 121.129 43.3701 121.465 43.3701C121.801 43.3701 122.045 43.2794 122.228 43.098C122.411 42.9166 122.503 42.6747 122.503 42.3119V39.3794H123.266V42.2817C123.266 42.6445 123.175 42.977 123.022 43.2189C122.869 43.491 122.625 43.6724 122.35 43.7933C122.076 43.9142 121.77 43.9747 121.434 43.9747C121.098 43.9747 120.793 43.9142 120.518 43.7933C120.244 43.6724 120.03 43.4608 119.877 43.2189C119.724 42.9468 119.633 42.6445 119.633 42.2817V39.3794H120.427Z" fill="black"/>
<path d="M129.865 39.651C130.231 39.8323 130.536 40.1044 130.72 40.4672C130.933 40.83 131.025 41.223 131.025 41.6765C131.025 42.13 130.933 42.5533 130.72 42.8858C130.506 43.2184 130.231 43.4905 129.865 43.6719C129.498 43.8532 129.071 43.9439 128.582 43.9439H127.086V39.3486H128.582C129.071 39.3789 129.498 39.4696 129.865 39.651ZM129.804 42.916C130.078 42.6137 130.231 42.2207 130.231 41.6765C130.231 41.1323 130.078 40.7393 129.804 40.437C129.529 40.1347 129.101 39.9835 128.552 39.9835H127.788V43.3393H128.552C129.101 43.3393 129.529 43.1881 129.804 42.916Z" fill="black"/>
<path d="M138.016 39.3794L136.489 42.3119V43.9747H135.726V42.3119L134.199 39.3794H135.054L136.123 41.6166L137.192 39.3794H138.016Z" fill="black"/>
<path d="M149.007 41.4044C148.884 41.6161 148.732 41.7672 148.487 41.9184C148.243 42.0393 147.938 42.0998 147.541 42.0998H146.716V43.9439H145.953V39.3486H147.541C147.907 39.3486 148.182 39.4091 148.457 39.53C148.732 39.651 148.884 39.8021 149.007 40.0137C149.129 40.2254 149.19 40.437 149.19 40.7091C149.159 40.9812 149.098 41.1928 149.007 41.4044ZM148.152 41.2835C148.304 41.1626 148.365 40.9812 148.365 40.7393C148.365 40.2254 148.091 39.9835 147.51 39.9835H146.686V41.4649H147.51C147.816 41.4951 148.029 41.4347 148.152 41.2835Z" fill="black"/>
<path d="M153.59 43.702C153.224 43.4904 152.949 43.2183 152.735 42.8555C152.521 42.4927 152.43 42.0997 152.43 41.6462C152.43 41.1927 152.521 40.7997 152.735 40.4369C152.949 40.0741 153.224 39.802 153.59 39.5904C153.956 39.3788 154.353 39.2881 154.781 39.2881C155.208 39.2881 155.605 39.3788 155.972 39.5904C156.338 39.802 156.613 40.0741 156.827 40.4369C157.04 40.7997 157.132 41.1927 157.132 41.6462C157.132 42.0997 157.04 42.4927 156.827 42.8555C156.613 43.2183 156.338 43.4904 155.972 43.702C155.605 43.9136 155.208 44.0043 154.781 44.0043C154.353 44.0043 153.956 43.9136 153.59 43.702ZM155.605 43.1578C155.85 43.0067 156.033 42.8253 156.155 42.5532C156.277 42.2811 156.369 42.009 156.369 41.6462C156.369 41.2834 156.308 41.0113 156.155 40.7695C156.002 40.5276 155.819 40.316 155.605 40.1951C155.361 40.0439 155.086 39.9834 154.781 39.9834C154.475 39.9834 154.201 40.0439 153.956 40.1951C153.712 40.3462 153.529 40.5276 153.407 40.7695C153.285 41.0113 153.193 41.3136 153.193 41.6462C153.193 41.9788 153.254 42.2811 153.407 42.5532C153.559 42.8253 153.743 43.0067 153.956 43.1578C154.17 43.309 154.475 43.3694 154.781 43.3694C155.086 43.3694 155.361 43.2787 155.605 43.1578Z" fill="black"/>
<path d="M163.084 43.9747L162.015 42.1305H161.435V43.9747H160.672V39.3794H162.26C162.626 39.3794 162.901 39.4399 163.176 39.5608C163.42 39.6817 163.603 39.8631 163.725 40.0445C163.847 40.2561 163.909 40.4678 163.909 40.7398C163.909 41.0422 163.817 41.3143 163.634 41.5561C163.451 41.798 163.176 41.9794 162.84 42.0398L164 43.9445H163.084V43.9747ZM161.466 41.5259H162.29C162.565 41.5259 162.779 41.4654 162.931 41.3143C163.084 41.1631 163.145 40.9817 163.145 40.7398C163.145 40.498 163.084 40.3166 162.931 40.1957C162.779 40.0747 162.565 39.984 162.29 39.984H161.466V41.5259Z" fill="black"/>
<path d="M170.686 39.3794V39.984H169.464V43.9445H168.701V39.984H167.449V39.3794H170.686Z" fill="black"/>
<path d="M177.038 43.0375H175.114L174.778 43.9747H173.984L175.633 39.3794H176.519L178.168 43.9747H177.374L177.038 43.0375ZM176.824 42.4026L176.061 40.2864L175.297 42.4026H176.824Z" fill="black"/>
<path d="M182.443 43.3393H184V43.9439H181.68V39.3486H182.443V43.3393Z" fill="black"/>
</svg>
