<svg width="144" height="120" viewBox="0 0 144 120" fill="none" xmlns="http://www.w3.org/2000/svg">
<g id="Frame" clip-path="url(#clip0_140_7779)">
<g id="Group">
<g id="Group_2">
<g id="Group_3">
<path id="Vector" d="M85.8577 17.204C85.8489 17.5655 85.8268 17.9182 85.787 18.2709C85.6498 19.6201 85.3224 20.9119 84.8312 22.12C82.6853 27.402 77.42 31.0659 71.3628 30.9072C70.3141 30.8807 69.2965 30.7396 68.3231 30.4971C66.8718 30.14 65.509 29.558 64.2746 28.7908C63.0843 28.0545 62.0136 27.1463 61.0977 26.1013C60.3544 25.2548 59.7128 24.3201 59.1863 23.3148C58.1199 21.2691 57.5403 18.9323 57.6067 16.4632C57.6111 16.2207 57.6244 15.9782 57.6421 15.7402C57.7394 14.3557 58.0049 13.0286 58.4341 11.7853C58.6553 11.1372 58.9208 10.5111 59.2261 9.91586C61.4871 5.52008 66.0002 2.60132 72.1017 2.76004C73.1901 2.78649 74.2476 2.94081 75.2608 3.20094C75.7298 3.31998 76.19 3.46548 76.6369 3.62861C77.3006 3.87111 77.9377 4.16651 78.5483 4.5016C79.0571 4.77937 79.5438 5.088 80.0084 5.42749C80.2297 5.58621 80.442 5.75376 80.6544 5.9213C80.9818 6.18584 81.2916 6.46361 81.5924 6.7546C82.3136 7.45563 82.9552 8.22721 83.5127 9.06492C84.2162 10.1231 84.7826 11.2827 85.1808 12.5172C85.3224 12.9581 85.4463 13.4122 85.5436 13.8752C85.7825 14.9421 85.8887 16.0576 85.8577 17.204Z" fill="#1464DF"/>
</g>
</g>
<g id="Group_4">
<g id="Group_5">
<path id="Vector_2" d="M85.7785 18.3812C82.407 20.0742 78.7346 21.7496 74.8586 23.3545C70.7084 25.0696 66.6643 26.5555 62.8591 27.7856C49.2889 32.1769 38.7893 33.3409 37.4664 30.162C36.1169 26.9082 44.7714 20.1051 57.9655 13.5048C57.9301 13.6679 57.8992 13.8311 57.8682 13.9986C57.7664 14.5674 57.6912 15.1494 57.6514 15.7402C57.647 15.7798 57.647 15.8239 57.6425 15.8636C49.5057 20.1889 44.3997 24.2496 45.2006 26.1719C45.966 28.0148 51.9658 27.4196 60.2354 25.0079C64.2573 23.8351 68.8191 22.2302 73.5711 20.2682C78.0355 18.4253 82.1548 16.4765 85.6856 14.585C93.641 10.3215 98.6054 6.34016 97.8179 4.43987C96.9949 2.46023 90.15 3.28912 80.9469 6.15498C80.854 6.07562 80.7566 5.99185 80.6593 5.91689C80.4513 5.74494 80.2345 5.58181 80.0133 5.42308C79.8186 5.28199 79.6239 5.14972 79.4204 5.02186C79.2788 4.92927 79.1328 4.84109 78.9912 4.75291C93.3889 -0.105815 104.738 -1.50788 106.114 1.8077C107.463 5.04391 98.8842 11.8073 85.7785 18.3812Z" fill="#FFC301"/>
</g>
</g>
</g>
<g id="Group_6">
<g id="Group_7">
<path id="Vector_3" d="M117.21 62.9518H37.1607C31.0857 62.9518 26.1611 58.0446 26.1611 51.991C26.1611 45.9375 31.0857 41.0302 37.1607 41.0302H117.21V62.9518Z" fill="#1464DF"/>
<path id="Vector_4" d="M117.184 44.7426H34.1963V59.2394H117.184V44.7426Z" fill="white"/>
<path id="Vector_5" opacity="0.1" d="M117.184 44.8793H34.1963V52.8905H117.184V44.8793Z" fill="#1464DF"/>
</g>
<g id="Group_8">
<path id="Vector_6" d="M117.418 84.8117H37.3687C31.2937 84.8117 26.3691 79.9045 26.3691 73.8509C26.3691 67.7973 31.2937 62.8901 37.3687 62.8901H117.418V84.8117Z" fill="#FFC301"/>
<path id="Vector_7" opacity="0.15" d="M117.211 62.9518H37.0236C31.1389 62.9518 26.3691 67.7047 26.3691 73.5687H117.206V62.9518H117.211Z" fill="#07293E"/>
<path id="Vector_8" d="M47.9566 62.8945H39.3242V84.9572H47.9566V62.8945Z" fill="#07293E"/>
<path id="Vector_9" d="M111.777 62.8945H103.145V84.9572H111.777V62.8945Z" fill="#07293E"/>
<path id="Vector_10" d="M95.5346 66.7965H54.293V79.3225H95.5346V66.7965Z" fill="white"/>
</g>
</g>
<g id="Group_9">
<g id="Group_10">
<g id="Group_11">
<path id="Vector_11" d="M85.8577 17.2039C85.8489 17.5655 85.8268 17.9182 85.787 18.2709C85.6498 19.6201 85.3224 20.9119 84.8312 22.12C82.6853 27.402 77.42 31.0659 71.3628 30.9071C70.3141 30.8807 69.2965 30.7396 68.3231 30.4971C66.8718 30.14 65.509 29.558 64.2746 28.7908C63.0843 28.0545 62.0136 27.1463 61.0977 26.1013C60.3544 25.2548 59.7128 24.3201 59.1863 23.3148C58.1199 21.269 57.5403 18.9323 57.6067 16.4632C57.6111 16.2207 57.6244 15.9782 57.6421 15.7402C57.7394 14.3557 58.0049 13.0286 58.4341 11.7853C58.6553 11.1371 58.9208 10.5111 59.2261 9.91585C61.4871 5.52007 66.0002 2.6013 72.1017 2.76003C73.1901 2.78648 74.2476 2.9408 75.2608 3.20093C75.7298 3.31997 76.19 3.46547 76.6369 3.6286C77.3006 3.8711 77.9377 4.1665 78.5483 4.50159C79.0571 4.77935 79.5438 5.08798 80.0084 5.42748C80.2297 5.5862 80.442 5.75375 80.6544 5.92129C80.9818 6.18583 81.2916 6.4636 81.5924 6.75459C82.3136 7.45562 82.9552 8.2272 83.5127 9.06491C84.2162 10.1231 84.7826 11.2826 85.1808 12.5172C85.3224 12.9581 85.4463 13.4122 85.5436 13.8751C85.7825 14.9421 85.8887 16.0576 85.8577 17.2039Z" fill="#1464DF"/>
</g>
</g>
<g id="Group_12">
<g id="Group_13">
<path id="Vector_12" d="M85.7785 18.3811C82.407 20.0742 78.7346 21.7496 74.8586 23.3545C70.7084 25.0696 66.6643 26.5555 62.8591 27.7856C49.2889 32.1769 38.7893 33.3409 37.4664 30.162C36.1169 26.9082 44.7714 20.1051 57.9655 13.5048C57.9301 13.6679 57.8992 13.8311 57.8682 13.9986C57.7664 14.5674 57.6912 15.1493 57.6514 15.7402C57.647 15.7798 57.647 15.8239 57.6425 15.8636C49.5057 20.1888 44.3997 24.2495 45.2006 26.1719C45.966 28.0148 51.9658 27.4196 60.2354 25.0079C64.2573 23.8351 68.8191 22.2302 73.5711 20.2682C78.0355 18.4252 82.1548 16.4765 85.6856 14.585C93.641 10.3215 98.6054 6.34015 97.8179 4.43986C96.9949 2.46022 90.15 3.28911 80.9469 6.15497C80.854 6.0756 80.7566 5.99183 80.6593 5.91688C80.4513 5.74493 80.2345 5.5818 80.0133 5.42307C79.8186 5.28198 79.6239 5.14971 79.4204 5.02185C79.2788 4.92926 79.1328 4.84108 78.9912 4.7529C93.3889 -0.105826 104.738 -1.50789 106.114 1.80768C107.463 5.0439 98.8842 11.8073 85.7785 18.3811Z" fill="#FFC301"/>
</g>
</g>
</g>
<g id="Group_14">
<g id="Group_15">
<path id="Vector_13" d="M117.21 62.9519H37.1607C31.0857 62.9519 26.1611 58.0446 26.1611 51.9911C26.1611 45.9375 31.0857 41.0303 37.1607 41.0303H117.21V62.9519Z" fill="#1464DF"/>
<path id="Vector_14" d="M117.184 44.7427H34.1963V59.2395H117.184V44.7427Z" fill="white"/>
<path id="Vector_15" opacity="0.1" d="M117.184 44.8793H34.1963V52.8905H117.184V44.8793Z" fill="#1464DF"/>
</g>
<g id="Group_16">
<path id="Vector_16" d="M117.418 84.8117H37.3687C31.2937 84.8117 26.3691 79.9045 26.3691 73.8509C26.3691 67.7974 31.2937 62.8901 37.3687 62.8901H117.418V84.8117Z" fill="#FFC301"/>
<path id="Vector_17" opacity="0.15" d="M117.211 62.9519H37.0236C31.1389 62.9519 26.3691 67.7048 26.3691 73.5688H117.206V62.9519H117.211Z" fill="#07293E"/>
<path id="Vector_18" d="M47.9566 62.8945H39.3242V84.9572H47.9566V62.8945Z" fill="#07293E"/>
<path id="Vector_19" d="M111.777 62.8945H103.145V84.9572H111.777V62.8945Z" fill="#07293E"/>
<path id="Vector_20" d="M95.5346 66.7965H54.293V79.3225H95.5346V66.7965Z" fill="white"/>
</g>
</g>
<g id="Group_17">
<path id="Vector_21" d="M3.16684 107.853C2.45006 107.549 1.87929 107.108 1.46337 106.53C1.04746 105.953 0.830657 105.274 0.817383 104.494H3.58276C3.61815 105.018 3.80841 105.437 4.14468 105.741C4.48095 106.05 4.94553 106.2 5.53843 106.2C6.14017 106.2 6.6136 106.054 6.95872 105.768C7.30384 105.481 7.4764 105.102 7.4764 104.639C7.4764 104.26 7.36136 103.947 7.12686 103.704C6.89235 103.462 6.60033 103.268 6.25079 103.127C5.90124 102.986 5.41896 102.831 4.80394 102.659C3.9677 102.412 3.29073 102.174 2.76863 101.932C2.24653 101.694 1.79964 101.332 1.42355 100.847C1.04746 100.362 0.861629 99.7186 0.861629 98.9073C0.861629 98.149 1.05189 97.4876 1.4324 96.9232C1.81292 96.3589 2.34829 95.9268 3.03411 95.627C3.72434 95.3272 4.5075 95.1773 5.39242 95.1773C6.71979 95.1773 7.7994 95.4991 8.62679 96.1429C9.45419 96.7866 9.91435 97.6816 9.99842 98.8323H7.15783C7.13128 98.3914 6.94545 98.0255 6.5959 97.7389C6.24636 97.4523 5.78178 97.3068 5.20216 97.3068C4.69775 97.3068 4.29511 97.4347 3.99424 97.6948C3.69337 97.9505 3.54293 98.3253 3.54293 98.8147C3.54293 99.1586 3.65797 99.4408 3.88363 99.6701C4.10928 99.8949 4.39246 100.08 4.73315 100.221C5.06942 100.362 5.54728 100.525 6.16229 100.706C6.99854 100.953 7.67993 101.196 8.20646 101.442C8.73299 101.689 9.18872 102.055 9.56923 102.545C9.94975 103.034 10.14 103.678 10.14 104.471C10.14 105.159 9.96302 105.794 9.60463 106.381C9.24624 106.967 8.72414 107.439 8.03832 107.787C7.34809 108.135 6.53396 108.312 5.5871 108.312C4.69333 108.312 3.88363 108.162 3.16684 107.853Z" fill="#07293E"/>
<path id="Vector_22" d="M26.4 95.3625V108.184H23.8205V99.8464L20.3737 108.184H18.418L14.9536 99.8464V108.184H12.374V95.3625H15.3031L19.3959 104.895L23.4886 95.3625H26.4Z" fill="#07293E"/>
<path id="Vector_23" d="M36.8334 105.741H31.7097L30.8602 108.184H28.1523L32.7805 95.3448H35.7848L40.4129 108.184H37.6829L36.8334 105.741ZM36.1343 103.687L34.2716 98.3209L32.4088 103.687H36.1343Z" fill="#07293E"/>
<path id="Vector_24" d="M48.7756 108.184L45.935 103.188H44.7182V108.184H42.1387V95.3625H46.9659C47.9614 95.3625 48.811 95.5388 49.51 95.8871C50.2091 96.2354 50.7357 96.7072 51.0852 97.3024C51.4347 97.8976 51.6117 98.559 51.6117 99.2953C51.6117 100.142 51.364 100.905 50.8728 101.584C50.3817 102.263 49.6516 102.73 48.6782 102.99L51.7577 108.188H48.7756V108.184ZM44.7226 101.262H46.8774C47.5765 101.262 48.0986 101.094 48.4437 100.755C48.7888 100.42 48.9614 99.9478 48.9614 99.3482C48.9614 98.7618 48.7888 98.3033 48.4437 97.9814C48.0986 97.6551 47.5765 97.4964 46.8774 97.4964H44.7226V101.262Z" fill="#07293E"/>
<path id="Vector_25" d="M62.7131 95.3625V97.4391H59.284V108.184H56.7045V97.4391H53.2754V95.3625H62.7131Z" fill="#07293E"/>
<path id="Vector_26" d="M70.9959 107.853C70.2792 107.549 69.7084 107.108 69.2925 106.53C68.8766 105.953 68.6598 105.274 68.6465 104.494H71.4119C71.4473 105.018 71.6375 105.437 71.9738 105.741C72.3101 106.05 72.7746 106.2 73.3675 106.2C73.9693 106.2 74.4427 106.054 74.7878 105.768C75.1329 105.481 75.3055 105.102 75.3055 104.639C75.3055 104.26 75.1905 103.947 74.956 103.704C74.7215 103.462 74.4294 103.268 74.0799 103.127C73.7303 102.986 73.2481 102.831 72.633 102.659C71.7968 102.412 71.1198 102.174 70.5977 101.932C70.0756 101.694 69.6287 101.332 69.2527 100.847C68.8766 100.362 68.6907 99.7186 68.6907 98.9073C68.6907 98.149 68.881 97.4876 69.2615 96.9232C69.642 96.3589 70.1774 95.9268 70.8632 95.627C71.5534 95.3272 72.3366 95.1773 73.2215 95.1773C74.5489 95.1773 75.6285 95.4991 76.4559 96.1429C77.2833 96.7866 77.7435 97.6816 77.8275 98.8323H74.9869C74.9604 98.3914 74.7745 98.0255 74.425 97.7389C74.0755 97.4523 73.6109 97.3068 73.0313 97.3068C72.5269 97.3068 72.1242 97.4347 71.8233 97.6948C71.5225 97.9505 71.372 98.3253 71.372 98.8147C71.372 99.1586 71.4871 99.4408 71.7127 99.6701C71.9384 99.8949 72.2216 100.08 72.5623 100.221C72.8985 100.362 73.3764 100.525 73.9914 100.706C74.8276 100.953 75.509 101.196 76.0356 101.442C76.5621 101.689 77.0178 102.055 77.3983 102.545C77.7788 103.034 77.9691 103.678 77.9691 104.471C77.9691 105.159 77.7921 105.794 77.4337 106.381C77.0753 106.967 76.5532 107.439 75.8674 107.787C75.1772 108.135 74.3631 108.312 73.4162 108.312C72.5224 108.312 71.7172 108.162 70.9959 107.853Z" fill="#07293E"/>
<path id="Vector_27" d="M80.4336 98.3694C81.0043 97.373 81.7831 96.5926 82.7742 96.037C83.7653 95.4815 84.8714 95.1993 86.1015 95.1993C87.5395 95.1993 88.8005 95.5653 89.8801 96.3016C90.9597 97.0379 91.7163 98.052 92.1455 99.3526H89.1766C88.8801 98.7398 88.4686 98.2812 87.9333 97.977C87.3979 97.6728 86.7829 97.5185 86.0793 97.5185C85.3316 97.5185 84.6635 97.6948 84.0794 98.0431C83.4954 98.3914 83.0397 98.8853 82.7167 99.5202C82.3892 100.155 82.23 100.905 82.23 101.76C82.23 102.606 82.3937 103.347 82.7167 103.991C83.0441 104.635 83.4954 105.128 84.0794 105.481C84.6635 105.829 85.3316 106.006 86.0793 106.006C86.7784 106.006 87.3979 105.851 87.9333 105.538C88.4686 105.225 88.8845 104.762 89.1766 104.15H92.1455C91.7163 105.459 90.9641 106.478 89.8889 107.209C88.8138 107.937 87.5527 108.303 86.1015 108.303C84.8714 108.303 83.7653 108.025 82.7742 107.465C81.7831 106.905 81.0043 106.134 80.4336 105.142C79.8628 104.15 79.5752 103.025 79.5752 101.76C79.5796 100.495 79.8628 99.3658 80.4336 98.3694Z" fill="#07293E"/>
<path id="Vector_28" d="M105.034 95.3625V108.184H102.455V102.73H96.9418V108.184H94.3623V95.3625H96.9418V100.636H102.455V95.3625H105.034Z" fill="#07293E"/>
<path id="Vector_29" d="M110.228 107.47C109.22 106.905 108.423 106.125 107.83 105.128C107.242 104.132 106.945 102.999 106.945 101.738C106.945 100.49 107.242 99.3658 107.83 98.3694C108.419 97.373 109.22 96.5926 110.228 96.0282C111.237 95.4639 112.343 95.1817 113.547 95.1817C114.764 95.1817 115.874 95.4639 116.874 96.0282C117.874 96.5926 118.666 97.373 119.25 98.3694C119.834 99.3658 120.126 100.49 120.126 101.738C120.126 102.999 119.834 104.128 119.25 105.128C118.666 106.125 117.87 106.91 116.865 107.47C115.856 108.034 114.75 108.316 113.547 108.316C112.343 108.316 111.237 108.034 110.228 107.47ZM115.595 105.494C116.184 105.146 116.648 104.648 116.976 104C117.308 103.352 117.471 102.598 117.471 101.742C117.471 100.887 117.303 100.133 116.976 99.4937C116.644 98.85 116.184 98.3562 115.595 98.0167C115.007 97.6772 114.326 97.5008 113.551 97.5008C112.777 97.5008 112.091 97.6728 111.498 98.0167C110.901 98.3606 110.436 98.8544 110.104 99.4937C109.773 100.133 109.609 100.887 109.609 101.742C109.609 102.598 109.777 103.352 110.104 104C110.432 104.648 110.901 105.146 111.498 105.494C112.096 105.843 112.777 106.019 113.551 106.019C114.326 106.019 115.003 105.843 115.595 105.494Z" fill="#07293E"/>
<path id="Vector_30" d="M124.702 107.47C123.693 106.905 122.897 106.125 122.304 105.128C121.715 104.132 121.419 102.999 121.419 101.738C121.419 100.49 121.715 99.3658 122.304 98.3694C122.892 97.373 123.693 96.5926 124.702 96.0282C125.711 95.4639 126.817 95.1817 128.02 95.1817C129.237 95.1817 130.348 95.4639 131.348 96.0282C132.348 96.5926 133.14 97.373 133.724 98.3694C134.308 99.3658 134.6 100.49 134.6 101.738C134.6 102.999 134.308 104.128 133.724 105.128C133.14 106.125 132.343 106.91 131.339 107.47C130.33 108.034 129.224 108.316 128.02 108.316C126.817 108.316 125.706 108.034 124.702 107.47ZM130.065 105.494C130.653 105.146 131.118 104.648 131.445 104C131.777 103.352 131.941 102.598 131.941 101.742C131.941 100.887 131.773 100.133 131.445 99.4937C131.113 98.85 130.653 98.3562 130.065 98.0167C129.476 97.6772 128.795 97.5008 128.02 97.5008C127.246 97.5008 126.56 97.6728 125.967 98.0167C125.37 98.3606 124.906 98.8544 124.574 99.4937C124.242 100.133 124.078 100.887 124.078 101.742C124.078 102.598 124.246 103.352 124.574 104C124.901 104.648 125.37 105.146 125.967 105.494C126.565 105.843 127.246 106.019 128.02 106.019C128.795 106.019 129.476 105.843 130.065 105.494Z" fill="#07293E"/>
<path id="Vector_31" d="M139.095 106.147H143.334V108.184H136.516V95.3625H139.095V106.147Z" fill="#07293E"/>
</g>
<g id="Group_18">
<path id="Vector_32" d="M1.49439 119.828C1.14485 119.713 0.870524 119.559 0.666992 119.374L0.932468 118.818C1.12273 118.99 1.36608 119.127 1.66695 119.233C1.9634 119.339 2.27312 119.391 2.58727 119.391C3.00318 119.391 3.3129 119.321 3.51643 119.18C3.71996 119.039 3.82173 118.854 3.82173 118.62C3.82173 118.448 3.76421 118.311 3.65359 118.205C3.54298 118.1 3.40139 118.016 3.23768 117.959C3.07397 117.901 2.83947 117.84 2.5386 117.765C2.16251 117.672 1.85721 117.584 1.62713 117.496C1.39705 117.407 1.19794 117.266 1.03423 117.081C0.870524 116.892 0.786456 116.64 0.786456 116.323C0.786456 116.058 0.85725 115.816 0.998837 115.604C1.14042 115.393 1.3528 115.221 1.6404 115.093C1.928 114.965 2.28197 114.899 2.70673 114.899C3.00318 114.899 3.29078 114.938 3.57838 115.013C3.86597 115.088 4.10933 115.199 4.31286 115.34L4.07836 115.908C3.8704 115.776 3.64475 115.675 3.40582 115.604C3.16689 115.534 2.93239 115.503 2.70673 115.503C2.29967 115.503 1.9988 115.578 1.79526 115.723C1.59173 115.869 1.48997 116.063 1.48997 116.292C1.48997 116.464 1.54749 116.601 1.66253 116.711C1.77757 116.817 1.91915 116.9 2.08729 116.962C2.25542 117.024 2.4855 117.086 2.77752 117.152C3.15361 117.24 3.45449 117.332 3.68457 117.421C3.91465 117.513 4.10933 117.65 4.27304 117.835C4.43675 118.02 4.52082 118.272 4.52082 118.585C4.52082 118.845 4.45002 119.083 4.30843 119.299C4.16685 119.515 3.95004 119.687 3.65802 119.81C3.366 119.938 3.01203 120 2.58727 120C2.20675 120 1.84393 119.943 1.49439 119.828Z" fill="#1464DF"/>
<path id="Vector_33" d="M8.77241 115.578H7.05566V114.956H11.1927V115.578H9.47592V119.943H8.76798V115.578H8.77241Z" fill="#1464DF"/>
<path id="Vector_34" d="M14.6845 119.431C14.3128 119.052 14.127 118.505 14.127 117.791V114.956H14.8437V117.765C14.8437 118.832 15.3127 119.365 16.2508 119.365C16.7065 119.365 17.0605 119.233 17.2994 118.968C17.5427 118.704 17.6622 118.303 17.6622 117.76V114.952H18.3569V117.787C18.3569 118.505 18.171 119.052 17.7994 119.427C17.4277 119.806 16.91 119.991 16.2419 119.991C15.5782 120 15.0561 119.81 14.6845 119.431Z" fill="#1464DF"/>
<path id="Vector_35" d="M22.1133 114.956H24.2238C24.7548 114.956 25.2238 115.062 25.6308 115.269C26.0423 115.476 26.3609 115.772 26.5865 116.151C26.8122 116.53 26.9272 116.962 26.9272 117.452C26.9272 117.941 26.8122 118.373 26.5865 118.752C26.3609 119.131 26.0423 119.422 25.6308 119.634C25.2193 119.841 24.7503 119.947 24.2238 119.947H22.1133V114.956ZM24.1796 119.325C24.5866 119.325 24.9406 119.246 25.2503 119.092C25.5556 118.933 25.7945 118.717 25.9627 118.435C26.1308 118.153 26.2149 117.826 26.2149 117.456C26.2149 117.086 26.1308 116.759 25.9627 116.477C25.7945 116.195 25.56 115.975 25.2503 115.82C24.945 115.662 24.5866 115.587 24.1796 115.587H22.8301V119.334H24.1796V119.325Z" fill="#1464DF"/>
<path id="Vector_36" d="M33.9353 119.325V119.947H30.3027V114.96H33.8336V115.582H31.0195V117.112H33.5283V117.716H31.0195V119.325H33.9353Z" fill="#1464DF"/>
<path id="Vector_37" d="M41.6831 114.956V119.943H41.099L38.0947 116.226V119.943H37.3779V114.956H37.962L40.9663 118.673V114.956H41.6831Z" fill="#1464DF"/>
<path id="Vector_38" d="M46.4658 115.578H44.749V114.956H48.886V115.578H47.1693V119.943H46.4613V115.578H46.4658Z" fill="#1464DF"/>
<path id="Vector_39" d="M52.2581 119.828C51.9085 119.713 51.6342 119.559 51.4307 119.374L51.6961 118.818C51.8864 118.99 52.1297 119.127 52.4306 119.233C52.7271 119.339 53.0368 119.392 53.3509 119.392C53.7668 119.392 54.0766 119.321 54.2801 119.18C54.4836 119.039 54.5854 118.854 54.5854 118.62C54.5854 118.448 54.5279 118.311 54.4173 118.206C54.3067 118.1 54.1651 118.016 54.0014 117.959C53.8376 117.901 53.6031 117.84 53.3023 117.765C52.9262 117.672 52.6209 117.584 52.3908 117.496C52.1607 117.408 51.9616 117.266 51.7979 117.081C51.6342 116.892 51.5501 116.64 51.5501 116.323C51.5501 116.058 51.6209 115.816 51.7625 115.604C51.9041 115.393 52.1165 115.221 52.4041 115.093C52.6917 114.965 53.0456 114.899 53.4704 114.899C53.7668 114.899 54.0544 114.938 54.342 115.013C54.6296 115.088 54.873 115.199 55.0765 115.34L54.842 115.908C54.6341 115.776 54.4084 115.675 54.1695 115.604C53.9306 115.534 53.6961 115.503 53.4704 115.503C53.0633 115.503 52.7625 115.578 52.5589 115.723C52.3554 115.869 52.2536 116.063 52.2536 116.292C52.2536 116.464 52.3112 116.601 52.4262 116.711C52.5412 116.817 52.6828 116.9 52.851 116.962C53.0191 117.024 53.2492 117.086 53.5412 117.152C53.9173 117.24 54.2182 117.333 54.4482 117.421C54.6783 117.513 54.873 117.65 55.0367 117.835C55.2004 118.02 55.2845 118.272 55.2845 118.585C55.2845 118.845 55.2137 119.083 55.0721 119.299C54.9305 119.515 54.7137 119.687 54.4217 119.81C54.1297 119.938 53.7757 120 53.3509 120C52.9748 120 52.612 119.943 52.2581 119.828Z" fill="#1464DF"/>
<path id="Vector_40" d="M63.1956 119.828C62.846 119.713 62.5717 119.559 62.3682 119.374L62.6336 118.818C62.8239 118.99 63.0673 119.127 63.3681 119.233C63.6646 119.339 63.9743 119.392 64.2884 119.392C64.7043 119.392 65.0141 119.321 65.2176 119.18C65.4211 119.039 65.5229 118.854 65.5229 118.62C65.5229 118.448 65.4654 118.311 65.3548 118.206C65.2442 118.1 65.1026 118.016 64.9389 117.959C64.7751 117.901 64.5406 117.84 64.2398 117.765C63.8637 117.672 63.5584 117.584 63.3283 117.496C63.0982 117.408 62.8991 117.266 62.7354 117.081C62.5717 116.892 62.4876 116.64 62.4876 116.323C62.4876 116.058 62.5584 115.816 62.7 115.604C62.8416 115.393 63.054 115.221 63.3416 115.093C63.6292 114.965 63.9831 114.899 64.4079 114.899C64.7044 114.899 64.992 114.938 65.2795 115.013C65.5671 115.088 65.8105 115.199 66.014 115.34L65.7795 115.908C65.5716 115.776 65.3459 115.675 65.107 115.604C64.8681 115.534 64.6336 115.503 64.4079 115.503C64.0008 115.503 63.7 115.578 63.4964 115.723C63.2929 115.869 63.1911 116.063 63.1911 116.292C63.1911 116.464 63.2487 116.601 63.3637 116.711C63.4787 116.817 63.6203 116.9 63.7885 116.962C63.9566 117.024 64.1867 117.086 64.4787 117.152C64.8548 117.24 65.1557 117.333 65.3857 117.421C65.6158 117.513 65.8105 117.65 65.9742 117.835C66.1379 118.02 66.222 118.272 66.222 118.585C66.222 118.845 66.1512 119.083 66.0096 119.299C65.868 119.515 65.6512 119.687 65.3592 119.81C65.0672 119.938 64.7132 120 64.2884 120C63.9123 120 63.5451 119.943 63.1956 119.828Z" fill="#1464DF"/>
<path id="Vector_41" d="M70.4785 115.578H68.7617V114.956H72.8987V115.578H71.182V119.943H70.474V115.578H70.4785Z" fill="#1464DF"/>
<path id="Vector_42" d="M76.3895 119.431C76.0179 119.052 75.832 118.505 75.832 117.791V114.956H76.5488V117.765C76.5488 118.832 77.0178 119.365 77.9558 119.365C78.4116 119.365 78.7655 119.233 79.0045 118.968C79.2478 118.704 79.3673 118.303 79.3673 117.76V114.952H80.0619V117.787C80.0619 118.505 79.8761 119.052 79.5044 119.427C79.1328 119.806 78.6151 119.991 77.947 119.991C77.2789 120 76.7612 119.81 76.3895 119.431Z" fill="#1464DF"/>
<path id="Vector_43" d="M83.8145 114.956H85.925C86.4559 114.956 86.9249 115.062 87.332 115.269C87.7435 115.476 88.0621 115.772 88.2877 116.151C88.5134 116.53 88.6284 116.962 88.6284 117.452C88.6284 117.941 88.5134 118.373 88.2877 118.752C88.0621 119.131 87.7435 119.422 87.332 119.634C86.9205 119.846 86.4515 119.947 85.925 119.947H83.8145V114.956ZM85.8807 119.325C86.2878 119.325 86.6418 119.246 86.9515 119.092C87.2568 118.933 87.4957 118.717 87.6639 118.435C87.832 118.153 87.9161 117.826 87.9161 117.456C87.9161 117.086 87.832 116.759 87.6639 116.477C87.4957 116.195 87.2612 115.975 86.9515 115.82C86.6418 115.662 86.2878 115.587 85.8807 115.587H84.5312V119.334H85.8807V119.325Z" fill="#1464DF"/>
<path id="Vector_44" d="M93.7073 118.219V119.943H92.9993V118.206L91.0127 114.956H91.7781L93.3798 117.584L94.9904 114.956H95.6983L93.7073 118.219Z" fill="#1464DF"/>
<path id="Vector_45" d="M106.397 115.419C106.768 115.728 106.954 116.151 106.954 116.693C106.954 117.236 106.768 117.659 106.397 117.967C106.025 118.276 105.516 118.43 104.866 118.43H103.627V119.938H102.91V114.952H104.861C105.516 114.956 106.025 115.11 106.397 115.419ZM105.883 117.527C106.122 117.333 106.242 117.059 106.242 116.698C106.242 116.336 106.122 116.058 105.883 115.869C105.645 115.675 105.299 115.582 104.848 115.582H103.631V117.818H104.848C105.299 117.813 105.645 117.716 105.883 117.527Z" fill="#1464DF"/>
<path id="Vector_46" d="M111.26 119.669C110.853 119.449 110.539 119.145 110.304 118.752C110.074 118.364 109.959 117.928 109.959 117.447C109.959 116.967 110.074 116.535 110.304 116.142C110.534 115.754 110.853 115.445 111.26 115.225C111.667 115.005 112.118 114.894 112.627 114.894C113.127 114.894 113.578 115.005 113.985 115.225C114.392 115.445 114.707 115.75 114.937 116.138C115.167 116.526 115.282 116.962 115.282 117.443C115.282 117.928 115.167 118.364 114.937 118.752C114.707 119.14 114.392 119.444 113.985 119.665C113.578 119.885 113.127 119.996 112.627 119.996C112.118 120 111.662 119.89 111.26 119.669ZM113.614 119.118C113.906 118.951 114.136 118.721 114.308 118.43C114.476 118.139 114.561 117.813 114.561 117.452C114.561 117.09 114.476 116.764 114.308 116.473C114.14 116.182 113.91 115.953 113.614 115.785C113.322 115.617 112.99 115.534 112.623 115.534C112.255 115.534 111.924 115.617 111.627 115.785C111.331 115.953 111.096 116.182 110.928 116.473C110.76 116.764 110.676 117.09 110.676 117.452C110.676 117.813 110.76 118.139 110.928 118.43C111.096 118.721 111.331 118.951 111.627 119.118C111.924 119.286 112.255 119.37 112.623 119.37C112.99 119.365 113.322 119.286 113.614 119.118Z" fill="#1464DF"/>
<path id="Vector_47" d="M122.003 119.943L120.923 118.413C120.79 118.422 120.684 118.426 120.609 118.426H119.37V119.943H118.653V114.956H120.605C121.251 114.956 121.764 115.11 122.135 115.419C122.507 115.728 122.693 116.151 122.693 116.693C122.693 117.077 122.596 117.408 122.405 117.676C122.215 117.945 121.941 118.144 121.591 118.267L122.777 119.943H122.003ZM121.622 117.531C121.861 117.337 121.981 117.059 121.981 116.698C121.981 116.336 121.861 116.058 121.622 115.869C121.383 115.675 121.038 115.582 120.587 115.582H119.37V117.826H120.587C121.038 117.822 121.383 117.725 121.622 117.531Z" fill="#1464DF"/>
<path id="Vector_48" d="M127.064 115.578H125.348V114.956H129.485V115.578H127.768V119.943H127.06V115.578H127.064Z" fill="#1464DF"/>
<path id="Vector_49" d="M135.493 118.699H132.834L132.285 119.947H131.551L133.816 114.96H134.524L136.798 119.947H136.046L135.493 118.699ZM135.241 118.126L134.161 115.684L133.082 118.126H135.241Z" fill="#1464DF"/>
<path id="Vector_50" d="M139.825 114.956H140.542V119.321H143.25V119.943H139.825V114.956Z" fill="#1464DF"/>
</g>
</g>
<defs>
<clipPath id="clip0_140_7779">
<rect width="142.667" height="120" fill="white" transform="translate(0.666992)"/>
</clipPath>
</defs>
</svg>
